<svg xmlns="http://www.w3.org/2000/svg" data-name="Layer 1" viewBox="0 0 700 550" id="man-talking-on-the-telephone"><path fill="#f9e0c0" d="M211.16673,403.43644c-37.51782-63.78688-58.73547-136.30333,22.15423-183.88059s248.23858,53.11656,285.7564,116.90344-69.00267,66.512-149.89237,114.08928S248.68454,467.22332,211.16673,403.43644Z"></path><path fill="#f4c5a2" d="M204.68605,414.06879c-24.49609-41.64649-36.3496-76.5293-36.24023-106.6416.1416-38.60742,20.4834-70.10547,60.46191-93.61914,27.69434-16.28907,66.45411-18.21094,112.08985-5.55957,37.70215,10.45312,78.62988,30.48242,115.24316,56.39843,34.93653,24.72852,62.36524,52.499,75.25293,76.18946l-.8789.47851C503.024,290.59418,416.06691,230.09906,340.73,209.21234c-45.36816-12.57812-83.86035-10.68945-111.31445,5.457-39.65332,23.32325-59.83008,54.53223-59.96973,92.76172-.10937,29.92774,11.7002,64.64356,36.10156,106.12989Z"></path><path fill="#935b50" d="M540.23773,234.721V472.65586h53.79221V234.721a2.58119,2.58119,0,0,0-2.5812-2.58119H542.81893A2.58119,2.58119,0,0,0,540.23773,234.721Z"></path><rect width="47.855" height="35.543" x="543.206" y="275.426" fill="#e19974" rx="2.581"></rect><rect width="47.855" height="35.543" x="543.206" y="236.012" fill="#e19974" rx="2.581"></rect><path fill="#d6694b" d="M588.02175 267.04364a1.59461 1.59461 0 11-2.25318 2.2533 9.5606 9.5606 0 00.561-.89795 2.03133 2.03133 0 01.32519-.46887C586.897 267.684 587.21071 267.61151 588.02175 267.04364zM585.76857 238.26935a1.59461 1.59461 0 112.25318 2.2533 9.54016 9.54016 0 00-.898-.56116 2.02134 2.02134 0 01-.469-.32532C586.40871 239.39411 586.3362 239.08026 585.76857 238.26935zM546.24587 240.52265a1.59469 1.59469 0 112.25342-2.2533 9.45393 9.45393 0 00-.561.898 2.02363 2.02363 0 01-.32544.46887C547.37062 239.88227 547.0569 239.95478 546.24587 240.52265zM548.49929 269.29694a1.59469 1.59469 0 11-2.25342-2.2533 9.57391 9.57391 0 00.898.56116 2.021 2.021 0 01.469.32532C547.85891 268.17218 547.93142 268.486 548.49929 269.29694zM588.02175 306.45856a1.59461 1.59461 0 11-2.25318 2.2533 9.56192 9.56192 0 00.561-.89795 2.02856 2.02856 0 01.32519-.46888C586.897 307.09894 587.21071 307.02643 588.02175 306.45856zM585.76857 277.68415a1.5946 1.5946 0 112.25318 2.25329 9.55781 9.55781 0 00-.898-.561 2.0293 2.0293 0 01-.469-.32532C586.40871 278.8089 586.3362 278.49518 585.76857 277.68415zM546.24587 279.93744a1.59469 1.59469 0 112.25342-2.25329 9.43522 9.43522 0 00-.561.89807 2.02625 2.02625 0 01-.32544.46887C547.37062 279.29706 547.0569 279.36969 546.24587 279.93744zM548.49929 308.71186a1.59469 1.59469 0 11-2.25342-2.2533 9.58952 9.58952 0 00.898.561 2.02529 2.02529 0 01.469.32544C547.85891 307.5871 547.93142 307.90082 548.49929 308.71186z"></path><rect width="47.855" height="35.543" x="543.206" y="314.841" fill="#e19974" rx="2.581"></rect><rect width="47.855" height="35.543" x="543.206" y="354.256" fill="#e19974" rx="2.581"></rect><rect width="47.855" height="35.543" x="543.206" y="393.671" fill="#e19974" rx="2.581"></rect><rect width="47.855" height="35.543" x="543.206" y="433.086" fill="#e19974" rx="2.581"></rect><rect width="14.713" height="5.421" x="559.777" y="248.943" fill="#d6694b" rx="1"></rect><rect width="14.713" height="5.421" x="559.777" y="327.773" fill="#d6694b" rx="1"></rect><rect width="14.713" height="5.421" x="559.777" y="367.188" fill="#d6694b" rx="1"></rect><rect width="14.713" height="5.421" x="559.777" y="446.018" fill="#d6694b" rx="1"></rect><rect width="14.713" height="5.421" x="559.777" y="406.603" fill="#d6694b" rx="1"></rect><rect width="14.713" height="5.421" x="559.777" y="288.358" fill="#d6694b" rx="1"></rect><path fill="#d6694b" d="M588.02175 345.87348a1.59456 1.59456 0 11-2.25318 2.25317 9.54351 9.54351 0 00.561-.89795 2.034 2.034 0 01.32519-.46887C586.897 346.51374 587.21071 346.44123 588.02175 345.87348zM585.76857 317.09906a1.59461 1.59461 0 112.25318 2.2533 9.5091 9.5091 0 00-.898-.561 2.025 2.025 0 01-.469-.32544C586.40871 318.22382 586.3362 317.91 585.76857 317.09906zM546.24587 319.35236a1.59469 1.59469 0 112.25342-2.2533 9.45393 9.45393 0 00-.561.89795 2.02363 2.02363 0 01-.32544.46887C547.37062 318.712 547.0569 318.78449 546.24587 319.35236zM548.49929 348.12665a1.59465 1.59465 0 11-2.25342-2.25317 9.59169 9.59169 0 00.898.561 2.02837 2.02837 0 01.469.32532C547.85891 347.00189 547.93142 347.31574 548.49929 348.12665zM588.02175 385.28827a1.59461 1.59461 0 11-2.25318 2.2533 9.5606 9.5606 0 00.561-.89795 2.03133 2.03133 0 01.32519-.46887C586.897 385.92865 587.21071 385.85614 588.02175 385.28827zM585.76857 356.514a1.59456 1.59456 0 112.25318 2.25317 9.56 9.56 0 00-.898-.561 2.02868 2.02868 0 01-.469-.32532C586.40871 357.63874 586.3362 357.32489 585.76857 356.514zM546.24587 358.76715a1.59465 1.59465 0 112.25342-2.25317 9.43722 9.43722 0 00-.561.89795 2.02363 2.02363 0 01-.32544.46887C547.37062 358.12689 547.0569 358.1994 546.24587 358.76715zM548.49929 387.54157a1.59469 1.59469 0 11-2.25342-2.2533 9.54048 9.54048 0 00.898.561 2.02468 2.02468 0 01.469.32544C547.85891 386.41681 547.93142 386.73065 548.49929 387.54157zM588.02175 464.11811a1.59456 1.59456 0 11-2.25318 2.25317 9.54351 9.54351 0 00.561-.898 2.034 2.034 0 01.32519-.46887C586.897 464.75836 587.21071 464.68585 588.02175 464.11811zM585.76857 435.34369a1.59461 1.59461 0 112.25318 2.2533 9.5091 9.5091 0 00-.898-.561 2.025 2.025 0 01-.469-.32544C586.40871 436.46845 586.3362 436.1546 585.76857 435.34369zM546.24587 437.597a1.59469 1.59469 0 112.25342-2.2533 9.45393 9.45393 0 00-.561.898 2.02363 2.02363 0 01-.32544.46887C547.37062 436.95661 547.0569 437.02912 546.24587 437.597zM548.49929 466.37128a1.59465 1.59465 0 11-2.25342-2.25317 9.59169 9.59169 0 00.898.561 2.02837 2.02837 0 01.469.32532C547.85891 465.24652 547.93142 465.56037 548.49929 466.37128zM588.02175 424.70319a1.5946 1.5946 0 11-2.25318 2.25329 9.56077 9.56077 0 00.561-.89794 2.03226 2.03226 0 01.32519-.469C586.897 425.34357 587.21071 425.27094 588.02175 424.70319zM585.76857 395.92877a1.59461 1.59461 0 112.25318 2.2533 9.55781 9.55781 0 00-.898-.561 2.0293 2.0293 0 01-.469-.32532C586.40871 397.05353 586.3362 396.73981 585.76857 395.92877zM546.24587 398.18207a1.59469 1.59469 0 112.25342-2.2533 9.43633 9.43633 0 00-.561.89808 2.02625 2.02625 0 01-.32544.46887C547.37062 397.54169 547.0569 397.61432 546.24587 398.18207zM548.49929 426.95648a1.59469 1.59469 0 11-2.25342-2.25329 9.58952 9.58952 0 00.898.561 2.029 2.029 0 01.469.32532C547.85891 425.83173 547.93142 426.14545 548.49929 426.95648zM542.42973 204.03019h50.00283a0 0 0 010 0v11.15992a16.92 16.92 0 01-16.92 16.92H559.34973a16.92 16.92 0 01-16.92-16.92V204.03019A0 0 0 01542.42973 204.03019z"></path><path fill="#8b9d36" d="M561.2529,199.02512a14.25017,14.25017,0,0,1-1.73169-3.8634,8.97049,8.97049,0,0,1-.32666-2.9961,3.28592,3.28592,0,0,1,1.084-2.26037,15.35811,15.35811,0,0,0,1.91358-1.90406l3.09082-4.16516a19.98276,19.98276,0,0,0,2.66479-4.57031l.02344-.05994a.59576.59576,0,0,1,1.06616-.09131,14.04776,14.04776,0,0,1,1.58423,6.04346,27.05113,27.05113,0,0,1-.22607,6.02808c-.13989.9751-.06983,2.03491-.12744,3.05554a3.926,3.926,0,0,1-1.12891,2.62549,8.39752,8.39752,0,0,1-2.689,1.81909,11.04327,11.04327,0,0,1-4.23853.87817,1.08714,1.08714,0,0,1-.939-.5072Z"></path><path fill="#5e7c24" d="M552.2822,179.17575l3.45483,8.27369a11.31077,11.31077,0,0,0,1.09839,1.83837,4.43,4.43,0,0,1,.43774.88685,3.77128,3.77128,0,0,1,.14893.93933,7.92794,7.92794,0,0,1-.05811.99768,8.2122,8.2122,0,0,1-.1914,1.06592c-.06763.33837-.19556.74389-.30445,1.18933-.12866.42932-.21362.87133-.36889,1.5177l-.01782.07422a.55685.55685,0,0,1-.47559.42224,4.516,4.516,0,0,1-1.771-.19971,7.55812,7.55812,0,0,1-1.44677-.71265,8.08121,8.08121,0,0,1-1.12061-.94848,7.7412,7.7412,0,0,1-.8457-1.07544,4.22421,4.22421,0,0,1-.69507-2.41931c.00928-.84961.13184-1.692.11719-2.48792.00341-.801.0227-1.5918.06445-2.376.0708-.78942.16479-1.571.2627-2.34668a32.59813,32.59813,0,0,1,1.01171-4.61047.372.372,0,0,1,.46631-.24353A.38179.38179,0,0,1,552.2822,179.17575Z"></path><path fill="#50661a" d="M529.06613,185.18625c2.10327.56189,4.14234,1.233,6.187,1.88684l3.03492,1.03235,2.9851,1.1073c.99073.37549,2.04395.62854,3.0752.91834a7.76864,7.76864,0,0,1,2.77124,1.43725,14.56234,14.56234,0,0,1,4.16308,5.47754l.05.11035a.42385.42385,0,0,1-.21118.56079l-.01489.00635a9.32579,9.32579,0,0,1-3.90015.60425,13.26556,13.26556,0,0,1-3.34179-.56213,7.7198,7.7198,0,0,1-2.80835-1.53638c-.82154-.71509-1.62183-1.46509-2.477-2.10681l-2.55079-1.94715-2.48632-2.04858c-1.63257-1.40649-3.26441-2.80737-4.82325-4.33252a.36169.36169,0,0,1,.34717-.60779Z"></path><path fill="#5e7c24" d="M525.46042,202.18039c1.852-.61853,3.709-1.10168,5.56567-1.59594l2.78711-.67554,2.791-.57068c.93091-.17175,1.856-.50659,2.78393-.76294a6.1364,6.1364,0,0,1,2.8064-.13342,11.31434,11.31434,0,0,1,2.84326.92749,10.43713,10.43713,0,0,1,2.88184,2.0238.51608.51608,0,0,1,.02441.69959,10.43342,10.43342,0,0,1-2.73291,2.2207,11.31825,11.31825,0,0,1-2.77148,1.12414,6.13529,6.13529,0,0,1-2.8086.06348c-.94384-.19079-1.89013-.46008-2.83081-.56628l-2.824-.37378-2.82764-.47876c-1.88672-.36316-3.77295-.71509-5.66382-1.20239a.36491.36491,0,0,1-.26245-.44446A.36893.36893,0,0,1,525.46042,202.18039Z"></path><path fill="#8b9d36" d="M539.0051 207.508a9.4752 9.4752 0 013.00244 1.49695 9.72378 9.72378 0 011.991 1.971 5.23735 5.23735 0 011.00537 2.41284c.13574.89111.19873 1.81006.40332 2.67065l.55395 2.60437.40894 2.66455c.10547.89722.209 1.79956.26025 2.71826a11.42482 11.42482 0 01-.10766 2.84351.35019.35019 0 01-.65528.08948l-.04492-.08948a41.72318 41.72318 0 00-2.73242-4.34058l-1.45215-2.15991-1.40234-2.18249a25.54626 25.54626 0 00-1.604-2.095 5.17835 5.17835 0 01-1.04736-2.33362 10.15642 10.15642 0 01.78442-5.97913A.5405.5405 0 01539.0051 207.508zM510.51047 214.36435a20.26385 20.26385 0 014.32519-3.678q1.20045-.76848 2.47657-1.43335c.85571-.42614 1.73632-.78686 2.626-1.15869.89893-.30786 1.77637-.81579 2.69654-1.15088a5.33007 5.33007 0 012.84985-.35485 8.6783 8.6783 0 015.58252 3.03173.51182.51182 0 01-.01026.67884l-.019.02063a11.82515 11.82515 0 01-2.58764 2.09741 12.12836 12.12836 0 01-2.40748 1.14917 5.36678 5.36678 0 01-2.40893.23474 15.31989 15.31989 0 00-2.51514-.23267c-.8269.03614-1.66845.06153-2.50073.15271-.84741.03992-1.69678.12049-2.54346.23865a35.32435 35.32435 0 00-5.15966.97608l-.03516.0094a.3608.3608 0 01-.36914-.58094z"></path><path fill="#50661a" d="M529.581 212.04734a7.50033 7.50033 0 013.34034.68921 8.50086 8.50086 0 012.43237 1.66333 5.28821 5.28821 0 011.40942 2.42492c.25953.92761.40186 1.89771.65015 2.80091l.3269 1.36926.24927 1.38574a26.33468 26.33468 0 01.19312 2.80322 17.82347 17.82347 0 01-.81055 5.43335.36382.36382 0 01-.69067.01221l-.009-.02661a28.50668 28.50668 0 00-1.90283-4.6438 22.39564 22.39564 0 00-1.18774-2.08179l-.61255-1.00378-.67017-.9668a12.1337 12.1337 0 00-1.61011-1.74621 4.634 4.634 0 01-1.19677-1.93433 12.65226 12.65226 0 01-.41455-5.69251l.00464-.03466A.51876.51876 0 01529.581 212.04734zM509.13791 228.90708c1.37939-1.18067 2.7959-2.25757 4.19238-3.35376l2.10694-1.59693 2.11914-1.52343a22.33611 22.33611 0 001.988-1.72071 5.188 5.188 0 012.20655-1.19043 10.571 10.571 0 012.65551-.32287 14.58991 14.58991 0 011.49756.09094 14.86948 14.86948 0 011.7334.30884l.02759.0072a.53408.53408 0 01.39795.54858 6.93922 6.93922 0 01-.39795 1.80469 10.68532 10.68532 0 01-.70654 1.47791 9.50748 9.50748 0 01-1.8772 2.2417 5.36424 5.36424 0 01-2.41138 1.21862c-.89892.204-1.82788.32459-2.68384.58106l-2.59057.70093-2.63111.56652c-1.772.32435-3.53588.641-5.35693.80713a.36662.36662 0 01-.39868-.33191A.37565.37565 0 01509.13791 228.90708z"></path><path fill="#8b9d36" d="M508.05791,240.55067c1.37939-1.18067,2.7959-2.25757,4.19238-3.35376L514.35723,235.6l2.11914-1.52343a22.33611,22.33611,0,0,0,1.988-1.72071,5.188,5.188,0,0,1,2.20655-1.19043,10.571,10.571,0,0,1,2.65551-.32287,14.58991,14.58991,0,0,1,1.49756.09094,14.87159,14.87159,0,0,1,1.7334.30884l.02759.0072a.53409.53409,0,0,1,.398.54859,6.93924,6.93924,0,0,1-.398,1.80468,10.68532,10.68532,0,0,1-.70654,1.47791,9.50748,9.50748,0,0,1-1.8772,2.2417,5.36424,5.36424,0,0,1-2.41138,1.21862c-.89892.204-1.82788.32459-2.68384.58106l-2.59057.70093-2.63111.56653c-1.772.32434-3.53588.641-5.35693.80712a.36662.36662,0,0,1-.39868-.3319A.37567.37567,0,0,1,508.05791,240.55067Z"></path><path fill="#5e7c24" d="M527.91061,227.56162l.42432-.05652.36694-.00147c.24634.00367.48975.01539.73438.03248a5.035,5.035,0,0,1,1.21851.33142,4.40388,4.40388,0,0,1,1.76831,1.25219,2.52761,2.52761,0,0,1,.62231,1.82666c-.0227.678-.1792,1.35572-.18994,1.98084a12.15384,12.15384,0,0,1-.70484,3.63061,12.632,12.632,0,0,1-1.65283,3.1698.39122.39122,0,0,1-.68384-.09643l-.00659-.01868c-.40063-1.09961-.71264-2.10608-1.15674-3.04175a11.31435,11.31435,0,0,0-.64233-1.34033c-.19336-.43127-.44141-.83484-.64917-1.23a5.03287,5.03287,0,0,0-.9458-1.04431,1.28222,1.28222,0,0,1-.43579-1.10559,5.7106,5.7106,0,0,1,.39795-1.54785c.09643-.29016.2522-.63867.40161-.99683.22925-.4198.33276-.76868.606-1.2843l.07788-.1471A.604.604,0,0,1,527.91061,227.56162Z"></path><path fill="#8b9d36" d="M524.86813,237.99106a7.14109,7.14109,0,0,1,2.68531,2.48389,8.87509,8.87509,0,0,1,1.24389,3.01709,5.96763,5.96763,0,0,1-.1477,3.11853c-.303,1.01758-.76636,1.98047-1.07276,2.94958a24.3937,24.3937,0,0,1-2.65722,5.40528,29.007,29.007,0,0,1-1.7478,2.37658c-.62208.7522-1.31958,1.44385-1.98829,2.12647a.35962.35962,0,0,1-.60937-.323l.00708-.03369c.19678-.93994.43384-1.83606.6206-2.73474.14307-.91724.38331-1.776.45557-2.67969l.186-1.31152.09472-1.31116c.11841-.85046.10254-1.71631.136-2.55359a12.94323,12.94323,0,0,0-.32813-2.5155,7.48573,7.48573,0,0,1-.10742-1.20471,6.9374,6.9374,0,0,1,.15967-1.18738,15.75137,15.75137,0,0,1,.85181-2.48328,21.04966,21.04966,0,0,1,1.55639-2.91064l.03784-.05933A.48255.48255,0,0,1,524.86813,237.99106Z"></path><path fill="#50661a" d="M559.93332,197.42722a8.72133,8.72133,0,0,1,1.80786,2.57861,8.213,8.213,0,0,1,.69849,2.454,4.22606,4.22606,0,0,1-.37207,2.3136c-.33716.74011-.75513,1.46643-1.01783,2.2168l-.85571,2.24-1.0039,2.21386a19.37543,19.37543,0,0,1-2.62867,4.27076.35566.35566,0,0,1-.6206-.24842l.00293-.08105a45.46311,45.46311,0,0,0-.18482-4.6322l-.14892-2.33228-.08887-2.32214a20.82555,20.82555,0,0,0-.30688-2.35425,4.14247,4.14247,0,0,1,.29443-2.26416,8.45272,8.45272,0,0,1,1.32886-2.129,9.2304,9.2304,0,0,1,2.40088-2.00915A.57893.57893,0,0,1,559.93332,197.42722Z"></path><path fill="#8b9d36" d="M568.1218,200.83823l.40722.10437.33838.12512.66846.25794a6.50347,6.50347,0,0,1,1.03638.61157,4.75693,4.75693,0,0,1,1.37329,1.44116,2.2689,2.2689,0,0,1,.27514,1.70606c-.12036.60485-.3457,1.2279-.40625,1.8164a16.40721,16.40721,0,0,1-.8374,3.59131,7.01155,7.01155,0,0,1-2.11255,3.26074.37269.37269,0,0,1-.59375-.2854l-.00317-.0802a8.46521,8.46521,0,0,0-.78955-2.97412c-.19214-.48047-.38135-.94421-.616-1.41943l-.60571-1.41a8.97786,8.97786,0,0,0-.8728-1.36828,1.84239,1.84239,0,0,1-.30127-1.4607,5.0443,5.0443,0,0,1,.6936-1.70532,7.97876,7.97876,0,0,1,.66016-.95325l.47192-.52233.23608-.26429.30323-.2843.02075-.01929A.70868.70868,0,0,1,568.1218,200.83823Z"></path><path fill="#50661a" d="M569.67893,200.609a9.857,9.857,0,0,1,.24218-3.34607,10.05183,10.05183,0,0,1,1.02954-2.59265,5.26638,5.26638,0,0,1,1.7959-1.86853c.75293-.47851,1.56128-.90564,2.25049-1.44446l2.10156-1.58374,2.16822-1.5238,4.42944-2.97449.009-.006a.36491.36491,0,0,1,.54346.43567,45.807,45.807,0,0,1-2.38355,4.88965l-1.33471,2.324-1.42407,2.24329c-.49.733-.86133,1.57751-1.292,2.36658a5.28294,5.28294,0,0,1-1.75879,1.93151,9.94316,9.94316,0,0,1-2.53564,1.19751,9.67659,9.67659,0,0,1-3.33374.43372A.5375.5375,0,0,1,569.67893,200.609Z"></path><path fill="#5e7c24" d="M579.09079 203.76267a10.57975 10.57975 0 01.86231-3.47754 11.877 11.877 0 011.57568-2.64392 6.5534 6.5534 0 012.25683-1.82971c.88721-.44641 1.82325-.83142 2.65552-1.342l2.53052-1.48829 2.59375-1.40429c1.75537-.901 3.502-1.809 5.32935-2.60865a.362.362 0 01.44433.53528l-.00879.01306c-1.13867 1.66492-2.35815 3.22168-3.5686 4.78528l-1.85523 2.29261-1.9187 2.20874c-.65063.72155-1.19751 1.569-1.79345 2.35485a6.43788 6.43788 0 01-2.19214 1.86719 11.85266 11.85266 0 01-2.87354 1.0531 10.86929 10.86929 0 01-3.58667.21936A.509.509 0 01579.09079 203.76267zM579.31467 213.55014a8.847 8.847 0 01.09082 3.103 8.07346 8.07346 0 01-.731 2.37647 4.01437 4.01437 0 01-1.52612 1.67321 22.90389 22.90389 0 00-1.99829 1.256l-1.854 1.38354-1.93261 1.314c-1.32129.84681-2.63428 1.70105-4.04883 2.46558a.37276.37276 0 01-.52442-.46362c.5857-1.49744 1.27271-2.90515 1.95118-4.32031l1.06738-2.079 1.146-2.00953a22.90962 22.90962 0 001.002-2.137 4.01507 4.01507 0 011.47363-1.7196 8.06959 8.06959 0 012.269-1.0166 8.84947 8.84947 0 013.09082-.28992A.5849.5849 0 01579.31467 213.55014z"></path><path fill="#50661a" d="M577.92258,222.52793l.43554.05151.37159.08814.73608.19226a6.40036,6.40036,0,0,1,1.186.55664,5.36349,5.36349,0,0,1,1.69677,1.508,3.0355,3.0355,0,0,1,.59937,1.97364c-.02.72631-.14893,1.47021-.13892,2.17065a15.60653,15.60653,0,0,1-.54883,4.22986,10.37713,10.37713,0,0,1-1.92358,3.78174.37809.37809,0,0,1-.66089-.195l-.00342-.02563a14.90988,14.90988,0,0,0-.91186-3.51795,16.01261,16.01261,0,0,0-.69531-1.58215c-.21753-.51282-.49048-1.02564-.73316-1.5249a8.58454,8.58454,0,0,0-1.04272-1.41712,2.3067,2.3067,0,0,1-.53614-1.54773,6.42615,6.42615,0,0,1,.36109-1.9425,9.91017,9.91017,0,0,1,.44653-1.13953l.344-.64551.16894-.32776.22876-.3623.02588-.041A.61767.61767,0,0,1,577.92258,222.52793Z"></path><path fill="#8b9d36" d="M579.29416,204.951l.41431-.1145.3645-.06506.72412-.13428a8.503,8.503,0,0,1,1.23315-.06445,5.96621,5.96621,0,0,1,1.99683.31579,2.40135,2.40135,0,0,1,1.323,1.06751,10.44811,10.44811,0,0,0,.98877,1.51941c.38452.42028.76977.86511,1.16089,1.27527.37939.45617.77221.85168,1.18164,1.25927a7.09341,7.09341,0,0,0,2.77832,1.93811l.06933.02307a.36742.36742,0,0,1,.07642.66163,6.80893,6.80893,0,0,1-4.33814.57885,17.47763,17.47763,0,0,1-4.04614-1.08423c-.61914-.26086-1.34839-.3894-2.00659-.61047a2.89991,2.89991,0,0,1-1.58423-1.1814,5.53533,5.53533,0,0,1-.82349-2.04113,6.93465,6.93465,0,0,1-.14453-1.281l.04248-.75085.02735-.377.07861-.42834a.63641.63641,0,0,1,.45557-.49866Z"></path><path fill="#7e883b" d="M518.92922,246.08051l-.71289-.70117c3.35449-3.40235,7.55273-8.65723,8.50293-14.3711a55.665,55.665,0,0,0,.71289-9.02832c-.01367-.69433-.04-1.23828-.06348-1.71094a14.17287,14.17287,0,0,1,.06738-2.92382c.21485-1.61914.71485-5.4043,3.2793-7.74414a5.55242,5.55242,0,0,1,3.4336-1.41114,30.95393,30.95393,0,0,0,5.38476-1.333c3.68164-1.23828,5.51563-1.9121,6.97168-3.68457a6.00108,6.00108,0,0,0,1.19922-2.30175,5.59678,5.59678,0,0,1,1.416-2.50489,9.2862,9.2862,0,0,1,8.19629-2.56445,7.3105,7.3105,0,0,1,3.78028,2.24805,7.60133,7.60133,0,0,0,3.9082,2.31347,6.3435,6.3435,0,0,0,2.39063.10059,21.28277,21.28277,0,0,1,2.541-.11328,28.25656,28.25656,0,0,1,8.35352,1.39551,2.18265,2.18265,0,0,1,1.49023,1.792,2.90649,2.90649,0,0,1-.43652,2.16211,1.65752,1.65752,0,0,0-.27637,1.32031,55.57306,55.57306,0,0,1,.48438,8.7207c-.09668,4.49512-.66211,6.1084-1.543,7.25391a6.168,6.168,0,0,1-1.38575,1.30859,8.3153,8.3153,0,0,0-1.28418,1.126,10.48045,10.48045,0,0,0-2.51562,5.27344l-.98242-.18555a11.454,11.454,0,0,1,2.76367-5.76562,9.1262,9.1262,0,0,1,1.42187-1.25,5.204,5.204,0,0,0,1.18946-1.11621c.62109-.80762,1.23633-1.98829,1.33594-6.666a54.545,54.545,0,0,0-.47461-8.55859,2.63725,2.63725,0,0,1,.4082-1.97364,1.92791,1.92791,0,0,0,.30273-1.5205,1.17621,1.17621,0,0,0-.80273-.96778,27.25176,27.25176,0,0,0-8.05859-1.34863,21.09788,21.09788,0,0,0-2.44141.10937,7.37517,7.37517,0,0,1-2.707-.12207,8.65226,8.65226,0,0,1-4.3711-2.56445,6.32127,6.32127,0,0,0-3.2998-1.99316,8.21866,8.21866,0,0,0-7.2666,2.27929,4.63736,4.63736,0,0,0-1.18457,2.11621,7.02773,7.02773,0,0,1-1.37793,2.63184c-1.70313,2.07324-3.85742,2.79785-7.42676,3.99707a31.73163,31.73163,0,0,1-5.541,1.37207,4.61547,4.61547,0,0,0-2.92187,1.16309c-2.29492,2.09375-2.76172,5.626-2.96094,7.13476a13.22933,13.22933,0,0,0-.06152,2.74512c.02441.48047.05176,1.03418.06543,1.74121a56.79443,56.79443,0,0,1-.72656,9.21191C526.7134,237.145,522.38527,242.5766,518.92922,246.08051Z"></path><path fill="#50661a" d="M520.23727,244.4758l.1438.39051.09082.3435.17725.68335a7.07461,7.07461,0,0,1,.12549,1.16406,4.77968,4.77968,0,0,1-.26734,1.87061,1.985,1.985,0,0,1-1.07153,1.16,12.5699,12.5699,0,0,0-1.5437.743c-.4585.297-.92285.58911-1.39917.87036l-1.47827.8009c-1.01831.50488-2.02832,1.01709-3.13965,1.4397a.39535.39535,0,0,1-.52466-.4635c.28223-1.155.666-2.22046,1.04126-3.29334l.61255-1.56567c.22022-.50757.45288-1.00427.69116-1.4961a12.54264,12.54264,0,0,0,.54688-1.62353,1.98568,1.98568,0,0,1,1.019-1.20642,4.77813,4.77813,0,0,1,1.82349-.49585,7.07885,7.07885,0,0,1,1.17065-.01917l.69995.09168.352.04761.40528.09472A.7461.7461,0,0,1,520.23727,244.4758Z"></path><path fill="#8b9d36" d="M573.40256,228.14267a7.86219,7.86219,0,0,1,2.13232,2.0868,6.87157,6.87157,0,0,1,.99488,2.13635,3.4855,3.4855,0,0,1-.10914,2.13708c-.25585.70508-.60034,1.40259-.78906,2.10718-.21142.70544-.42993,1.40857-.66675,2.11182-.27392.70019-.56005,1.39685-.87622,2.09033a16.90425,16.90425,0,0,1-1.15747,2.04431,3.96792,3.96792,0,0,1-1.93188,1.69519.33635.33635,0,0,1-.40576-.46594l.07226-.14942a3.97914,3.97914,0,0,0,.17944-1.75854c-.03662-.64624-.10131-1.30615-.20385-1.97168-.07984-.66333-.18579-1.3324-.303-2.00012-.08423-.66553-.18506-1.33448-.29224-2.0022a15.00239,15.00239,0,0,0-.54834-2.01672,3.21841,3.21841,0,0,1,.03394-1.99158,7.28226,7.28226,0,0,1,1.05639-1.99439,9.0786,9.0786,0,0,1,2.11451-2.04418l.00952-.0066A.61439.61439,0,0,1,573.40256,228.14267Z"></path><path fill="#d6694b" d="M271.932,236.88367H137.4V84.17717H271.932Zm-129.75165-4.7796H267.15166V88.95677H142.18039Z"></path><rect width="143.967" height="7.155" x="132.683" y="236.926" fill="#935b50" rx="1.291"></rect><rect width="124.971" height="5.724" x="142.18" y="135.033" fill="#e19974"></rect><rect width="58.919" height="1" x="153.856" y="180.435" fill="#e19974" transform="rotate(-43.892 183.315 180.935)"></rect><rect width="48.558" height="1.001" x="155.603" y="159.816" fill="#e19974" transform="rotate(-42.785 179.882 160.316)"></rect><path fill="#ffba55" d="M201.69855,88.17717s-12.4869,56.42314-55.51816,80.64449c0,0,33.95473,47.46368,37.70173,75.68251H141.4V88.17717Z"></path><path fill="#e6952a" d="M146.18044 168.883a5.44483 5.44483 0 01-2.39014.49975 5.38576 5.38576 0 01-2.39038-.49975 5.384 5.384 0 012.39038-.49964A5.44483 5.44483 0 01146.18044 168.883zM151.62917 154.59943c1.63525-2.06128 3.26147-4.12561 4.82935-6.23511 1.59741-2.0852 3.167-4.19165 4.689-6.33118 3.05371-4.26977 6.08887-8.55542 8.85083-13.01574 2.81567-4.42237 5.49316-8.93738 7.8606-13.614.6394-1.14624 1.14087-2.3573 1.719-3.53393l.84058-1.77808.74292-1.81909c.478-1.21851 1.06323-2.40356 1.45581-3.65478l1.26489-3.7345a74.18463 74.18463 0 01-5.333 14.86c-.57617 1.18628-1.15893 2.37024-1.75732 3.54627-.6145 1.16687-1.272 2.31018-1.906 3.46667-.625 1.16236-1.30273 2.293-1.98511 3.4209-.688 1.12427-1.33227 2.2771-2.05957 3.37634q-4.27038 6.65754-9.0791 12.93689C158.54934 146.66315 155.22 150.74945 151.62917 154.59943zM154.50905 131.86457c.9187-2.35218 1.93555-4.65638 2.96753-6.95325 1.02173-2.302 2.11426-4.56934 3.20679-6.83667 1.11377-2.257 2.22974-4.51294 3.415-6.735l1.78125-3.33142c.62646-1.09448 1.22217-2.2041 1.876-3.28528-.45 1.18067-.95825 2.33289-1.43554 3.50025l-1.53052 3.45386c-1.02246 2.30151-2.11426 4.56921-3.208 6.83593-1.11523 2.25623-2.23071 4.51245-3.41675 6.73413C156.989 127.47382 155.79836 129.69318 154.50905 131.86457zM144.874 131.86457c.36011-3.09913.82788-6.17835 1.31226-9.25464.4729-3.07825 1.02319-6.14246 1.57373-9.20655.574-3.05969 1.1499-6.11914 1.802-9.16455l.98169-4.5675c.363-1.51587.69238-3.038 1.08545-4.54834-.16992 1.55139-.40356 3.09106-.60327 4.63708l-.70728 4.61792c-.47387 3.07813-1.02368 6.14234-1.57568 9.20618-.5752 3.05957-1.15088 6.119-1.80371 9.16431C146.29763 125.79572 145.63967 128.84 144.874 131.86457zM148.25148 185.33832c2.72681 4.27222 5.26123 8.66284 7.70508 13.10327 2.44531 4.44031 4.72656 8.96985 6.92774 13.54028 2.11987 4.60755 4.16211 9.26124 5.83813 14.06055a75.05591 75.05591 0 012.13989 7.31812 24.52908 24.52908 0 01.687 7.56592 26.30622 26.30622 0 00-1.16285-7.44764c-.6604-2.43127-1.48754-4.81689-2.387-7.17321-1.8125-4.70923-3.83618-9.3407-6.019-13.89832-2.11743-4.58923-4.40576-9.09937-6.70044-13.6073q-1.71313-3.3858-3.49219-6.739zM146.18044 201.87812c.2063 3.25048.30273 6.501.38281 9.75146.09131 3.25037.10425 6.50085.117 9.75134-.01124 3.25049-.02466 6.50086-.11524 9.75135l-.1394 4.87573c-.083 1.62524-.13184 3.25049-.24512 4.87561-.11353-1.62512-.16211-3.25037-.24512-4.87561l-.13965-4.87573c-.09057-3.25049-.10376-6.50086-.115-9.75135.01245-3.25049.02539-6.501.117-9.75134C145.87746 208.37909 145.97414 205.1286 146.18044 201.87812zM151.62917 208.10529c.95483 2.47058 1.74829 4.995 2.49145 7.53381.75342 2.53674 1.37769 5.10962 1.9502 7.69519a76.13771 76.13771 0 011.30054 7.84375c.14721 1.31909.2268 2.6471.28589 3.97315l-.04688 1.99438c-.04175.66358-.1394 1.32422-.22119 1.97742l-.044-1.97742-.17724-1.96313c-.15723-1.3053-.32056-2.60572-.5586-3.89954-.46-2.5863-.94043-5.17029-1.51586-7.73889-.54419-2.57446-1.14014-5.13941-1.71412-7.71289l-.89013-3.85535z"></path><path fill="#ffba55" d="M207.4,88.17717s12.4869,56.42314,55.51816,80.64449c0,0-33.95473,47.46368-37.70173,75.68251h42.48211V88.17717Z"></path><path fill="#e6952a" d="M262.91823 168.883a5.44411 5.44411 0 012.39014-.49964 5.383 5.383 0 012.39014.49964 5.38476 5.38476 0 01-2.39014.49975A5.44412 5.44412 0 01262.91823 168.883zM257.4695 154.59943c-3.59082-3.85-6.92016-7.93628-10.13281-12.10938q-4.79517-6.279-9.07935-12.93689c-.72729-1.09924-1.37133-2.25207-2.05932-3.37634-.68238-1.12793-1.36035-2.25854-1.98511-3.4209-.63428-1.15649-1.2915-2.2998-1.90625-3.46667q-.89721-1.764-1.75708-3.54627a74.18541 74.18541 0 01-5.33325-14.86l1.26513 3.7345c.39258 1.25122.97754 2.43627 1.45582 3.65478l.74292 1.81909.84033 1.77808c.57812 1.17663 1.07959 2.38769 1.71924 3.53393 2.36743 4.67664 5.04467 9.19165 7.86059 13.614 2.762 4.46032 5.79688 8.746 8.85059 13.01574 1.522 2.13953 3.09179 4.246 4.68921 6.33118C254.208 150.47382 255.83425 152.53815 257.4695 154.59943zM254.58937 131.86457c-1.28906-2.17139-2.47973-4.39075-3.65551-6.61744-1.186-2.22168-2.30152-4.4779-3.41675-6.73413-1.09375-2.26672-2.18579-4.53442-3.20825-6.83593l-1.53028-3.45386c-.47729-1.16736-.98559-2.31958-1.43554-3.50025.65381 1.08118 1.24951 2.1908 1.876 3.28528l1.78125 3.33142c1.18531 2.22205 2.301 4.478 3.415 6.735 1.09253 2.26733 2.18482 4.53467 3.20655 6.83667C252.65383 127.20819 253.67092 129.51239 254.58937 131.86457zM264.22463 131.86457c-.76587-3.02454-1.42383-6.06885-2.06543-9.11609-.65283-3.04529-1.22827-6.10474-1.80371-9.16431-.55176-3.06384-1.10181-6.12805-1.57544-9.20618l-.70728-4.61792c-.1997-1.546-.43335-3.08569-.60327-4.63708.39282 1.51037.72217 3.03247 1.08545 4.54834l.98145 4.5675c.6521 3.04541 1.228 6.10486 1.802 9.16455.55078 3.06409 1.10083 6.1283 1.574 9.20655C263.3965 125.68622 263.86452 128.76544 264.22463 131.86457zM260.84694 185.33832l-3.53613 6.72266q-1.7732 3.35613-3.49219 6.739c-2.29467 4.50793-4.583 9.01807-6.70068 13.6073-2.18286 4.55762-4.2063 9.18909-6.019 13.89832-.89942 2.35632-1.72632 4.74194-2.387 7.17321a26.306 26.306 0 00-1.16259 7.44764 24.52891 24.52891 0 01.68676-7.56592 74.99049 74.99049 0 012.14014-7.31812c1.676-4.79931 3.71826-9.453 5.83813-14.06055 2.20093-4.57043 4.48243-9.1 6.9275-13.54028C255.58571 194.00116 258.12014 189.61054 260.84694 185.33832zM262.91823 201.87812c.20606 3.25048.30274 6.501.38281 9.75146.09131 3.25037.10425 6.50085.11695 9.75134-.01123 3.25049-.02466 6.50086-.11524 9.75135l-.1394 4.87573c-.08325 1.62524-.13184 3.25049-.24512 4.87561-.11352-1.62512-.16211-3.25037-.24511-4.87561l-.13965-4.87573c-.09058-3.25049-.10376-6.50086-.115-9.75135.01245-3.25049.02539-6.501.11694-9.75134C262.61525 208.37909 262.71193 205.1286 262.91823 201.87812zM257.4695 208.10529l-.86011 3.87048-.89013 3.85535c-.574 2.57348-1.16992 5.13843-1.71436 7.71289-.57519 2.5686-1.05566 5.15259-1.51587 7.73889-.23779 1.29382-.40112 2.59424-.55859 3.89954l-.17725 1.96313-.0437 1.97742c-.082-.6532-.17969-1.31384-.22119-1.97742l-.04712-1.99438c.05933-1.32605.13867-2.65406.28589-3.97315a76.1357 76.1357 0 011.30078-7.84375c.57227-2.58557 1.19678-5.15845 1.9502-7.69519C255.721 213.10028 256.51467 210.57587 257.4695 208.10529z"></path><polygon fill="#e19974" points="210.736 232.032 196.599 232.032 191.836 206.997 215.499 206.997 210.736 232.032"></polygon><polygon fill="#d6694b" points="214.955 209.855 215.499 206.997 191.836 206.997 192.38 209.855 214.955 209.855"></polygon><rect width="4.223" height="4.223" x="195.618" y="220.164" fill="#d6694b" transform="rotate(45 197.73 222.275)"></rect><rect width="4.223" height="4.223" x="201.59" y="220.164" fill="#d6694b" transform="rotate(45 203.702 222.275)"></rect><rect width="4.223" height="4.223" x="207.494" y="220.164" fill="#d6694b" transform="rotate(45 209.606 222.275)"></rect><path fill="#558031" d="M209.17433,185.92865s1.24136,17.53747-6.03439,21.25414C203.13994,207.18279,200.62109,200.53374,209.17433,185.92865Z"></path><path fill="#849f4c" d="M185.69686,193.462s11.90278,2.05371,17.44308,13.7208C203.13994,207.18279,190.05094,202.73723,185.69686,193.462Z"></path><path fill="#a6b862" d="M189.91727,216.43373s6.05337-9.05609,13.22267-9.25094C203.13994,207.18279,202.06064,214.47462,189.91727,216.43373Z"></path><path fill="#849f4c" d="M197.38421,188.42842s8.3991,7.66866,5.75573,18.75437C203.13994,207.18279,198.48715,202.2509,197.38421,188.42842Z"></path><path fill="#a6b862" d="M203.13994,207.18279s2.95091-10.802,17.86844-13.572C221.00838,193.61081,217.65128,203.44625,203.13994,207.18279Z"></path><path fill="#849f4c" d="M224.96007,204.35906s-11.38166-4.69218-21.82013,2.82373C203.13994,207.18279,217.01678,208.84884,224.96007,204.35906Z"></path><path fill="#558031" d="M224.85652 215.283s-5.49566-8.80277-21.71658-8.10017zM179.56614 205.75792s14.94766-5.54253 23.76941 1.15986C203.33555 206.91778 194.95906 211.53164 179.56614 205.75792z"></path><path fill="#558031" d="M191.82359,189.709s13.33785,9.43347,11.42452,17.48144C203.24811,207.19046,193.99472,199.77121,191.82359,189.709Z"></path><path fill="#849f4c" d="M215.22061,216.5723s-10.99554-1.87718-12.08067-9.38951C203.13994,207.18279,211.17407,207.58072,215.22061,216.5723Z"></path><path fill="#8795de" d="M257.959,292.03192H396.53549a20.803,20.803,0,0,1,20.803,20.803v90.08882a0,0,0,0,1,0,0H237.156a0,0,0,0,1,0,0V312.83493A20.803,20.803,0,0,1,257.959,292.03192Z"></path><rect width="57.298" height="57.298" x="417.339" y="337.438" fill="#a2aee6"></rect><path fill="#4f66d0" d="M417.3384 337.43793c.2063 4.77478.303 9.54968.38306 14.32446.08227 4.7749.0747 9.54969.11645 14.32459-.03906 4.77478-.03516 9.54956-.11475 14.32446l-.13964 7.16223c-.083 2.38745-.1316 4.7749-.24512 7.16223-.11328-2.38733-.16187-4.77478-.24512-7.16223l-.1394-7.16223c-.07959-4.7749-.07569-9.54968-.11475-14.32446.04175-4.7749.03418-9.54969.11646-14.32459C417.03566 346.98761 417.13234 342.21271 417.3384 337.43793zM389.89382 312.488c-.94312.52637-1.87158 1.06152-2.75464 1.66907a31.1629 31.1629 0 00-2.61279 1.84216 33.8656 33.8656 0 00-4.64551 4.30517 22.63852 22.63852 0 00-3.428 5.26026l-.60181 1.46252c-.18139.49536-.27734 1.01685-.426 1.52625l-.22363.76843-.1167.78931c-.07056.52881-.15406 1.06006-.24634 1.59631a15.47445 15.47445 0 01.90259-6.434 18.72956 18.72956 0 013.38647-5.62585 25.13875 25.13875 0 014.95483-4.2721A24.63143 24.63143 0 01389.89382 312.488zM397.31813 347.46149c-.61328-.88867-1.23413-1.76233-1.92285-2.58374a31.12914 31.12914 0 00-2.08178-2.426 33.85262 33.85262 0 00-4.72657-4.21606 22.63254 22.63254 0 00-5.56176-2.91333l-1.51319-.46045c-.51025-.1333-1.03833-.17944-1.55981-.279l-.78613-.14978-.79688-.04138c-.533-.02-1.06982-.05262-1.6123-.09351a15.4718 15.4718 0 016.49047.28784 18.72747 18.72747 0 015.92188 2.8374 25.1338 25.1338 0 014.7229 4.52686A24.62934 24.62934 0 01397.31813 347.46149zM346.649 334.67328a24.63313 24.63313 0 015.71386-3.07666 25.12979 25.12979 0 016.34912-1.57739 18.72857 18.72857 0 016.54834.48437 15.473 15.473 0 015.77369 2.97925c-.491-.2345-.97266-.47327-1.44532-.72095l-.71167-.36059-.75659-.26123c-.50171-.17285-.98291-.39563-1.49194-.53382l-1.54151-.35327a22.6373 22.6373 0 00-6.27417-.2395 33.85521 33.85521 0 00-6.19751 1.306 31.163 31.163 0 00-3.01294 1.069C348.59646 333.75849 347.62331 334.20746 346.649 334.67328zM370.91213 360.93305a24.62241 24.62241 0 01-2.52051-5.98 25.12017 25.12017 0 01-.96777-6.4701 18.72591 18.72591 0 011.10351-6.473 15.47739 15.47739 0 013.51368-5.465c-.28.46667-.56324.92358-.85474 1.37036l-.42651.67444-.33179.72827c-.21973.48315-.48706.94091-.6731 1.43457l-.4978 1.5011a22.63027 22.63027 0 00-.834 6.22314 33.8638 33.8638 0 00.71191 6.29346 31.19628 31.19628 0 00.77832 3.10071C370.1863 358.90753 370.54079 359.91889 370.91213 360.93305zM300.42092 312.488c-.94287.52637-1.87134 1.06152-2.7544 1.66907a31.16454 31.16454 0 00-2.61279 1.84216 33.85171 33.85171 0 00-4.64551 4.30517 22.63852 22.63852 0 00-3.428 5.26026l-.602 1.46252c-.18115.49536-.2771 1.01685-.42578 1.52625l-.22363.76843-.1167.78931c-.0708.52881-.154 1.06006-.24634 1.59631a15.47461 15.47461 0 01.90259-6.434 18.72956 18.72956 0 013.38647-5.62585 25.14423 25.14423 0 014.95459-4.2721A24.63618 24.63618 0 01300.42092 312.488zM307.84548 347.46149c-.61328-.88867-1.23413-1.76233-1.92285-2.58374a31.13142 31.13142 0 00-2.08179-2.426 33.86671 33.86671 0 00-4.72656-4.21606 22.63 22.63 0 00-5.562-2.91333l-1.51294-.46045c-.51026-.1333-1.03858-.17944-1.55982-.279l-.78613-.14978-.79688-.04138c-.5332-.02-1.06982-.05262-1.6123-.09351a15.472 15.472 0 016.49048.28784 18.72742 18.72742 0 015.92187 2.8374 25.1338 25.1338 0 014.7229 4.52686A24.62938 24.62938 0 01307.84548 347.46149zM257.17629 334.67328a24.63152 24.63152 0 015.71362-3.07666 25.135 25.135 0 016.34912-1.57739 18.72958 18.72958 0 016.54859.48437 15.47293 15.47293 0 015.77368 2.97925c-.491-.2345-.9729-.47327-1.44531-.72095l-.71192-.36059-.75635-.26123c-.5017-.17285-.98291-.39563-1.49194-.53382l-1.5415-.35327a22.63731 22.63731 0 00-6.27417-.2395 33.85521 33.85521 0 00-6.19751 1.306 31.163 31.163 0 00-3.01294 1.069C259.1238 333.75849 258.15065 334.20746 257.17629 334.67328zM281.43947 360.93305a24.62319 24.62319 0 01-2.52051-5.98 25.13121 25.13121 0 01-.968-6.4701 18.73155 18.73155 0 011.10376-6.473 15.47737 15.47737 0 013.51367-5.465c-.28.46667-.56348.92358-.85474 1.37036l-.42651.67444-.33179.72827c-.21972.48315-.4873.94091-.67309 1.43457l-.498 1.5011a22.63957 22.63957 0 00-.83374 6.22314 33.8638 33.8638 0 00.71191 6.29346 31.199 31.199 0 00.77832 3.10071C280.71364 358.90753 281.06813 359.91889 281.43947 360.93305z"></path><path fill="#a2aee6" d="M235.5544,337.43791h36.91739a0,0,0,0,1,0,0v136.218a0,0,0,0,1,0,0H215.53412a0,0,0,0,1,0,0V357.45819A20.02028,20.02028,0,0,1,235.5544,337.43791Z"></path><path fill="#c0d6f2" d="M312.83266,473.65586H272.47178v-136.218h20.3406a20.02027,20.02027,0,0,1,20.02028,20.02028v25.90506l161.85192-1.10673-.048-44.81861h16.37658a20.02027,20.02027,0,0,1,20.02028,20.02028V473.65586Z"></path><circle cx="422.601" cy="153.564" r="28.034" fill="#ffba55"></circle><path fill="#d77f4a" d="M422.60109,182.09809a28.5337,28.5337,0,1,1,28.53418-28.53321A28.56535,28.56535,0,0,1,422.60109,182.09809Zm0-56.06739a27.5337,27.5337,0,1,0,27.53418,27.53418A27.56488,27.56488,0,0,0,422.60109,126.0307Z"></path><path fill="#d77f4a" d="M422.60109,156.06488a.49972.49972,0,0,1-.5-.5V137.48773a.5.5,0,1,1,1,0v18.07715A.49971.49971,0,0,1,422.60109,156.06488Z"></path><path fill="#d77f4a" d="M438.1548,159.80512a.49845.49845,0,0,1-.2246-.05274l-18.75586-9.40722a.5005.5005,0,0,1,.44921-.89454l18.75586,9.40723a.50015.50015,0,0,1-.22461.94727Z"></path><polygon fill="#f9977a" points="409.947 280.954 410.076 299.044 422.24 297.61 419.797 280.321 412.086 278.432 409.947 280.954"></polygon><path fill="#f9977a" d="M411.49443 442.69429s-6.26331 25.24862-4.36379 26.07207 52.42037 4.71082 43.78748.23793l-14.37364-6.5149a13.73839 13.73839 0 01-8.15713-12.94653l.2437-8.07758zM330.0017 442.69429s-6.2633 25.24862-4.36379 26.07207 52.42037 4.71082 43.78748.23793l-14.37364-6.5149a13.73839 13.73839 0 01-8.15713-12.94653l.24371-8.07758z"></path><path fill="#ffba55" d="M365.84959,340.90068l48.21831,2.55679a19.83629,19.83629,0,0,1,18.78594,19.80846l-.96532,78.71961a6.24585,6.24585,0,0,1-6.24539,6.16927h-14.363a6.24585,6.24585,0,0,1-6.22464-5.7315l-7.54894-65.2011L331.9463,387.37366c-2.65925.07451-18.24511-4.86293-20.3265-6.1486-3.72475-2.30078-7.43409-5.31051-9.10217-12.35957a27.78873,27.78873,0,0,1,1.19449-16.15445l4.34462-11.5418Z"></path><path fill="#f9977a" d="M371.38431,348.885s13.24007,3.72593,19.08266.32689c0,0,4.83281-3.14208,5.49026-2.69443.61681.42-.35818,2.3485-3.81229,5.92166a3.87381,3.87381,0,0,0-.265,5.15414,13.42842,13.42842,0,0,0,5.2962,3.38593s15.16709,4.55367.87707,9.41775a19.71315,19.71315,0,0,1-14.94534-4.15481C376.21409,360.586,367.3,359.88373,367.3,359.88373Z"></path><path fill="#dd765e" d="M393.15554 362.29108c.94018.27954 1.85913.60339 2.77783.92627l2.74072.99878 2.72656 1.01953a17.75216 17.75216 0 002.77881.84351 9.62792 9.62792 0 01-2.90722-.43836c-.95093-.24548-1.87232-.57507-2.79151-.90759-.91333-.34754-1.81909-.713-2.70556-1.12366C394.88674 363.20355 394.00612 362.78009 393.15554 362.29108zM392.26491 365.01239c.85034.26685 1.68262.56336 2.51587.855l2.49194.88282 2.48829.884 2.50927.86291a21.61322 21.61322 0 01-5.18335-1.22705c-.834-.30676-1.66186-.63037-2.46533-1.01086A21.51643 21.51643 0 01392.26491 365.01239zM391.55739 367.81818c.67774.135 1.3357.31433 1.99341.49219.65967.1715 1.30737.37292 1.958.56274l1.94385.58154a11.986 11.986 0 001.98.43811 5.60621 5.60621 0 01-2.07178-.02331 16.18618 16.18618 0 01-2.01025-.46753c-.65479-.20545-1.30518-.42273-1.93653-.69141A15.31528 15.31528 0 01391.55739 367.81818z"></path><path fill="#ffba55" d="M318.047,368.15892l.74621,14.99868,5.85723,60.32811A6.24585,6.24585,0,0,0,330.867,449.128h14.23474a6.24484,6.24484,0,0,0,6.24551-6.291c-.23945-29.8636.7046-49.05967-.23567-61.39811-1.7264-22.65405-3.658-22.19036-3.658-22.19036"></path><path fill="#f73c4f" d="M391.06469,268.2802s10.56962,5.54488,15.4713,39.85663c0,0,1.34827-.063,1.73787-12.73017a3.00569,3.00569,0,0,1,2.99792-2.914h9.08a2.99117,2.99117,0,0,1,2.98585,2.70465c1.04565,10.94808,3.57071,51.28819-16.28572,49.05713,0,0-13.15714,3.0958-18.3168-35.85965l-19.34873,17.80084-4.90168,14.705-5.15966.258,16.72445,6.08162a3,3,0,0,1,1.66777,4.1414l-4.55366,9.276a2.99633,2.99633,0,0,1-3.05838,1.65567c-9.59146-1.1881-48.60195-6.24922-51.54151-10.31938a14.18854,14.18854,0,0,1-2.32185-10.06134l-7.27512-.774s2.88941-23.99242,5.21126-34.31175,9.22309-42.19256,33.34309-45.663c14.38164-2.06927,8.94792,0,22.19136,0Z"></path><path fill="#1e1d22" d="M370.54454,254.34767l-2.066-5.469c-1.28516-3.88647-3.82065-5.0182-3.13137-9.05319l.77292-4.52462,3.41786-.179Z"></path><path fill="#1e1d22" d="M396.34217,233.39785h10.10375a0,0,0,0,1,0,0v5.75384a10.10373,10.10373,0,0,1-10.10373,10.10373h0a0,0,0,0,1,0,0V233.39785A0,0,0,0,1,396.34217,233.39785Z" transform="rotate(-8.965 401.394 241.327)"></path><path fill="#f9977a" d="M391.15036,226.25723c-6.8202-1.80118-14.33152,3.24173-18.71487,11.794a2.57116,2.57116,0,0,0-1.63154-.67549c-2.07649-.03393-3.80667,2.80008-3.86452,6.3301-.04145,2.53085.79013,4.72566,2.02824,5.78177-1.26422,10.63984,2.86677,19.9778,10.25634,21.92932,8.46238,2.23484,17.99229-6.06279,21.28563-18.53333S399.61274,228.49207,391.15036,226.25723Z"></path><path fill="#f9977a" d="M378.48951,268.71213a11.71949,11.71949,0,0,1-8.24313-8.42712l-.00079-.0004s-.99465,37.79893,18.795,8.68812l-.00526-.00249A20.2347,20.2347,0,0,1,378.48951,268.71213Z"></path><path fill="#dd765e" d="M387.46259 270.56206a13.239 13.239 0 01-9.70395-.24675c-4.11678-1.865-6.68725-5.94749-7.51233-11.03018l-.00072-.00052s-.0723 2.88689.07533 6.73256a12.40323 12.40323 0 006.11332 6.33395 13.37655 13.37655 0 0010.10149.11522c.305-.60906 1.171-1.36983 1.48747-2.03008zM368.79006 241.05866a1.67123 1.67123 0 011.20508-.94934 1.57989 1.57989 0 01.80737.07617 1.46579 1.46579 0 01.63086.45605 2.84345 2.84345 0 00-1.36377-.12646A3.71137 3.71137 0 00368.79006 241.05866z"></path><path fill="#dd765e" d="M369.427,245.09564a19.75662,19.75662,0,0,0,.46192-2.37487,9.45947,9.45947,0,0,0,.11157-1.19056c.03076-.40124.0122-.802.02612-1.22021a4.95821,4.95821,0,0,1,.27124,2.46484A5.24953,5.24953,0,0,1,369.427,245.09564Z"></path><path fill="#1e1d22" d="M408.19146,230.3712c-.21526-.58421-.62237-1.22164-4.4899-3.65624a56.47769,56.47769,0,0,0-6.7853-3.89615c-5.39856-2.518-8.09781-3.777-10.75021-3.27064-3.57336.68214-3.26888,3.17434-7.64435,4.96857-5.31743,2.18051-8.10075-.54333-10.71995,1.6912-3.6776,3.13752-2.341,12.04855.343,12.94938,1.57818.52969,3.29818-1.81867,4.29072-1.10605s.2,3.72572-.43941,6.15739c-.4489,1.70695-1.19463,3.54688-1.3458,4.3274l-1.74609,2.86982s-2.40966,12.78463,8.30493,18.98316c10.71056,6.19916,20.40538-9.03868,20.40538-9.03868h0a3.59717,3.59717,0,0,0-3.7979-3.02146,22.21846,22.21846,0,0,1-5.00553-.3931,19.26446,19.26446,0,0,1-9.11424-4.3c-1.75435-1.41986-3.13692-2.64287-4.14912-3.58238a4.88366,4.88366,0,0,1-1.54595-3.98145,29.786,29.786,0,0,1,.4059-3.74884c.42011-2.212.75459-3.97329,2.09515-4.84561,1.18524-.77126,1.986-.08561,4.32808-.23131,3.82958-.23821,4.39794-2.23989,7.59762-2.40265,1.148-.05837,1.33832.18585,6.16729,1.88664,7.15947,2.52158,7.99766,2.42726,8.63269,2.25012C406.61554,238.03542,409.27907,233.32321,408.19146,230.3712Zm-29.57118,28.7959c1.15479-.31175,2.18172-.39463,4.97528.56516a36.44179,36.44179,0,0,1,4.07321,2.04909c1.83376.86457,1.60024,1.86806,1.61654,2.02441.08376.90232-1.50867,1.88516-2.85479,2.25639-1.67077.46006-3.12952-.04141-5.98706-1.0622-2.379-.84964-3.57348-1.29247-3.85887-2.2006A3.216,3.216,0,0,1,378.62028,259.1671Z"></path><ellipse cx="383.781" cy="245.7" fill="#1e1d22" rx="1.771" ry="1.426" transform="rotate(-85.495 383.78 245.7)"></ellipse><path fill="#1e1d22" d="M388.20656,242.017a.587.587,0,0,1-.30664-.08691c-2.59472-1.584-6.98047-.10645-7.02344-.0918a.59079.59079,0,0,1-.38476-1.11719c.20019-.06933,4.9541-1.67578,8.02344.20117a.59071.59071,0,0,1-.3086,1.09473Z"></path><path fill="#dd765e" d="M390.01564,246.61005a6.87889,6.87889,0,0,0-.33032,3.74023,17.08,17.08,0,0,0,.959,3.66443l.39184.8905a1.57019,1.57019,0,0,1,.06861,1.19544,2.03077,2.03077,0,0,1-.70533.90515,3.02314,3.02314,0,0,1-.95141.48328,4.59906,4.59906,0,0,1-3.83179-.84473,7.31131,7.31131,0,0,0,1.853.49011,3.40492,3.40492,0,0,0,1.78784-.178,2.07216,2.07216,0,0,0,1.189-1.08215.8739.8739,0,0,0-.073-.69189l-.406-.88221a12.76022,12.76022,0,0,1-.84009-3.87573A5.7835,5.7835,0,0,1,390.01564,246.61005Z"></path><path fill="#1e1d22" d="M379.28908,244.716a5.52642,5.52642,0,0,1,4.25611-1.3108,6.46489,6.46489,0,0,1,2.199.63306,6.68787,6.68787,0,0,1,.97363.57874,10.40782,10.40782,0,0,1,.84375.74267c-.70019-.27307-1.36474-.54663-2.04394-.75024a10.26184,10.26184,0,0,0-2.04785-.4209,9.04442,9.04442,0,0,0-2.08155.03223A10.03382,10.03382,0,0,0,379.28908,244.716Z"></path><ellipse cx="394.313" cy="248.794" fill="#1e1d22" rx="1.771" ry="1.426" transform="rotate(-68.47 394.313 248.794)"></ellipse><path fill="#1e1d22" d="M399.03469 246.77191a.59029.59029 0 01-.418-.17382c-.03223-.03223-3.34766-3.28028-6.35059-2.999a.58058.58058 0 01-.64355-.53222.5906.5906 0 01.53222-.64356c3.60938-.3291 7.14942 3.19141 7.29786 3.34082a.59082.59082 0 01-.418 1.00781zM398.78029 249.88141a10.02935 10.02935 0 00-1.6687-1.36633 9.03637 9.03637 0 00-1.85644-.94263 10.2616 10.2616 0 00-2.02466-.52063c-.69971-.11523-1.41675-.161-2.16577-.223a10.39444 10.39444 0 011.084-.297 6.70592 6.70592 0 011.12915-.09265 6.46094 6.46094 0 012.25342.39636A5.52675 5.52675 0 01398.78029 249.88141z"></path><path fill="#b02336" d="M397.50661 289.04608a24.57266 24.57266 0 01-2.13428 10.70081c-.35864.84863-.80127 1.65832-1.23681 2.46936-.23413.39661-.49341.77881-.73877 1.16809a9.39951 9.39951 0 01-.79785 1.126 19.49 19.49 0 01-3.86377 3.88452 38.37661 38.37661 0 003.22265-4.32935 32.24081 32.24081 0 002.49878-4.719 41.12864 41.12864 0 001.82959-5.03211A48.52061 48.52061 0 00397.50661 289.04608zM406.53591 308.13678l-1.323 6.36182c-.4165 2.12012-.87378 4.22839-1.24268 6.35156-.387 2.11878-.74755 4.24243-1.02954 6.37586-.14184 1.06591-.27514 2.1372-.34155 3.21093-.04.53662-.1123 1.07581-.12622 1.61475-.0105.53894-.0332 1.08032-.0647 1.62549a30.00264 30.00264 0 01-.2334-6.52454 53.33911 53.33911 0 01.8125-6.48291c.39747-2.14038.88428-4.2616 1.48169-6.352A57.87947 57.87947 0 01406.53591 308.13678zM343.58815 283.62848a17.4958 17.4958 0 00-2.48071-4.59143 13.13024 13.13024 0 00-3.76245-3.42 7.87373 7.87373 0 00-1.11841-.60535l-.57129-.28418c-.19433-.08594-.40307-.13745-.60156-.2146-.40332-.13794-.80151-.298-1.21143-.42065-.42041-.08484-.83984-.17884-1.26025-.27723-.21094-.04443-.42017-.10546-.63379-.13684l-.64673-.06555-1.30053-.14917c-.87329-.06213-1.752-.02209-2.64746-.08288.86938-.16443 1.75488-.30335 2.64721-.40735l1.34937-.01428a6.34955 6.34955 0 011.3518.08508 12.48555 12.48555 0 015.16455 1.72046A12.32188 12.32188 0 01343.58815 283.62848zM315.468 308.39484c.2705 2.79.43164 5.58264.57617 8.37561.15576 2.79272.23315 5.58716.3103 8.38171.05322 2.79505.10449 5.59021.07837 8.38709l-.04272 4.19543c-.05079 1.39942-.06714 2.79785-.1482 4.19788-.14575-1.39478-.22656-2.791-.34179-4.18652l-.23633-4.189c-.155-2.79272-.23267-5.58728-.3086-8.38184-.05175-2.795-.10351-5.59021-.07666-8.38708C315.29421 313.9914 315.32619 311.1944 315.468 308.39484zM359.325 341.15863q-5.29723-1.66607-10.5542-3.44458-5.265-1.75635-10.49536-3.60925l-.34741-.12366.05078-.36743c.42065-3.05408.80127-6.11389 1.25513-9.16321L340.5801 315.3c.44507-3.05066.96191-6.09119 1.43945-9.13733q.73829-4.56611 1.5686-9.11914-.46 4.60529-1.01123 9.19763c-.38256 3.05945-.72558 6.12451-1.14062 9.17945l-1.2334 9.16626c-.40625 3.05627-.8855 6.10205-1.32471 9.15356l-.29663-.49084q5.22108 1.87958 10.40137 3.87231Q354.178 339.07324 359.325 341.15863zM378.198 304.22309a14.04445 14.04445 0 01-1.43457 4.91442 15.11569 15.11569 0 01-3.04126 4.1941 14.98936 14.98936 0 01-6.72974 3.75317 23.06448 23.06448 0 01-2.52637.407 26.66527 26.66527 0 004.61573-1.95385 17.10609 17.10609 0 003.9414-2.92066 18.79184 18.79184 0 003.05835-3.8529A23.11364 23.11364 0 00378.198 304.22309zM377.64528 313.3891a13.10741 13.10741 0 01-5.02514 6.48023 15.57757 15.57757 0 01-1.81787 1.05542 12.97453 12.97453 0 01-1.97437.71 11.69809 11.69809 0 01-4.113.387 24.05315 24.05315 0 003.86621-1.12732 16.011 16.011 0 003.47364-1.849 19.48477 19.48477 0 003.02392-2.54443A25.15311 25.15311 0 00377.64528 313.3891zM423.90334 303.47858a24.02706 24.02706 0 01-7.57471 1.89966 15.93422 15.93422 0 01-3.958-.14136 5.61872 5.61872 0 01-3.51269-1.7583 7.19578 7.19578 0 003.60962.984 27.16514 27.16514 0 003.78076-.08057C418.78347 304.17621 421.31228 303.78437 423.90334 303.47858zM367.30007 344.05866c-.655 1.39819-1.26245 2.80127-1.86865 4.19568-.59278 1.40014-1.16089 2.80566-1.62378 4.23962a25.607 25.607 0 00-1.11646 4.35535 13.2948 13.2948 0 00-.01221 4.50525 9.31325 9.31325 0 01-.76367-4.58838 17.54916 17.54916 0 01.94458-4.589 26.0364 26.0364 0 011.87183-4.26148A24.04246 24.04246 0 01367.30007 344.05866z"></path><path fill="#b02336" d="M375.96535,279.98761c-1.562,5.07031-3.303,10.08216-5.1228,15.06494-1.81958,4.98352-3.791,9.91-5.79077,14.82618-2.1001,4.87414-4.24488,9.73388-6.637,14.47839-2.45532,4.69275-4.98608,9.44665-8.53295,13.42065l1.15844-1.61645a14.49077,14.49077,0,0,0,1.1062-1.64282c.65967-1.14832,1.40528-2.2378,1.98658-3.43018.61279-1.17224,1.27295-2.316,1.85254-3.50513l1.73876-3.56518q3.35816-7.19019,6.406-14.52539c2.07227-4.87268,4.02612-9.79541,5.99683-14.71338Z"></path><path fill="#b02336" d="M394.31252,271.38922c-2.4292,3.18494-4.87061,6.36-7.36108,9.49488l-3.7229,4.71289c-1.23316,1.57739-2.50513,3.12292-3.75855,4.68384l-.51489.64147-.25366-.78869-3.21265-9.99549.74438.27125-8.41577,5.28833-.59619.37463-.08838-.69568c-.5144-4.04736-.96289-8.10315-1.41357-12.15857-.46485-4.05371-.86963-8.11511-1.25318-12.1792.65332,4.02954,1.28565,8.06177,1.85791,12.10169.58619,4.03808,1.17456,8.07592,1.69727,12.12231l-.68433-.321,8.36036-5.37586.55078-.35412.19384.62548,3.10767,10.02857-.76831-.14722c1.27783-1.54077,2.53686-3.097,3.835-4.62146l3.87036-4.59241C389.05861,277.43634,391.67946,274.4079,394.31252,271.38922Z"></path><path fill="#e6952a" d="M350.64748 379.17975a41.19655 41.19655 0 00-1.14429-7.98071 24.05507 24.05507 0 00-2.97265-7.37305 11.44028 11.44028 0 00-5.89063-4.87158 22.67706 22.67706 0 00-7.80615-.89453 14.695 14.695 0 00-7.37109 2.3385 14.3516 14.3516 0 00-4.91773 5.97339l-.7102 1.85351a16.69976 16.69976 0 00-.51709 1.92322 27.75785 27.75785 0 00-.63892 3.95178c-.13769 1.33191-.12378 2.67945-.1936 4.02454l.17285 4.04309c-.15943-1.33972-.312-2.68469-.44849-4.03333-.00854-1.35253-.10083-2.71228-.03979-4.07031a27.50558 27.50558 0 01.50561-4.05578 17.3718 17.3718 0 01.46363-2.00086l.67089-1.95386a14.52408 14.52408 0 015.12134-6.43957 15.6501 15.6501 0 017.83423-2.59192 23.59937 23.59937 0 018.18286 1.03821 11.85761 11.85761 0 016.259 5.34436 24.47135 24.47135 0 012.79126 7.68494A37.07685 37.07685 0 01350.64748 379.17975zM427.7029 363.45917a8.01213 8.01213 0 01-4.64746 1.6908 8.92089 8.92089 0 01-4.90186-1.26319 13.25532 13.25532 0 01-3.708-3.39184c-.45826-.69483-.92481-1.382-1.3313-2.09778-.34522-.75379-.718-1.48535-1.02808-2.24231.51807.64514.97315 1.31592 1.45606 1.96435.49926.63526 1.03808 1.23328 1.53076 1.85987a16.27244 16.27244 0 003.60522 3.00927 9.48718 9.48718 0 004.37573 1.35242A10.20576 10.20576 0 00427.7029 363.45917z"></path><path fill="#e6952a" d="M344.0967 376.01667a13.94659 13.94659 0 01-3.76563 3.8435 11.61812 11.61812 0 01-5.09375 2.0188 10.52743 10.52743 0 01-2.78515-.02466l-1.35571-.32056a8.52283 8.52283 0 01-1.28248-.51171 11.873 11.873 0 01-2.33886-1.401 26.32255 26.32255 0 01-1.95679-1.84791c.78027.45374 1.468 1.00782 2.23926 1.4231a15.02425 15.02425 0 002.36084 1.07263 10.01521 10.01521 0 004.98706.57813 12.95119 12.95119 0 004.79394-1.67139A21.92973 21.92973 0 00344.0967 376.01667zM427.7029 395.371a43.84886 43.84886 0 01-2.23193 6.77148 44.844 44.844 0 01-3.21 6.39331 31.63617 31.63617 0 01-4.33667 5.72119 17.505 17.505 0 01-5.83814 4.10645 23.54194 23.54194 0 005.23779-4.65369 42.38093 42.38093 0 004.04761-5.71387c1.23853-1.98864 2.3147-4.07971 3.37329-6.18225.53394-1.04992 1.03076-2.11987 1.51221-3.19763C426.76906 397.54962 427.22927 396.46112 427.7029 395.371zM427.7029 409.7442a22.70861 22.70861 0 01-2.4248 6.00953 23.65985 23.65985 0 01-3.9729 5.18823 18.79909 18.79909 0 01-5.38379 3.733 17.1784 17.1784 0 01-6.29761 1.55823c.51855-.16162 1.03369-.31372 1.54858-.45239l.76856-.21436c.25244-.0824.49438-.20093.74072-.29907l1.47412-.58448 1.40015-.73352a22.27727 22.27727 0 005.0227-3.75207 31.53231 31.53231 0 004.02149-4.86267 41.11524 41.11524 0 003.10278-5.59046zM308.05666 353.19037a29.16083 29.16083 0 00-.40039 5.05945 26.4084 26.4084 0 00.46924 4.98572 25.27167 25.27167 0 001.35791 4.81335 37.90488 37.90488 0 002.16919 4.595 17.86663 17.86663 0 01-2.91358-4.27 18.43112 18.43112 0 01-1.637-4.95068 19.06047 19.06047 0 01-.25415-5.20679A15.82041 15.82041 0 01308.05666 353.19037zM311.65261 362.19257a19.22 19.22 0 00.95923 5.652 11.03734 11.03734 0 001.22143 2.51574 17.7208 17.7208 0 001.79663 2.28357 6.90152 6.90152 0 01-2.44311-1.79175 7.73572 7.73572 0 01-1.5564-2.66259 9.281 9.281 0 01-.51025-3.024A7.89622 7.89622 0 01311.65261 362.19257z"></path><path fill="#f73c4f" d="M457.08 471.198v-.09578a3.9646 3.9646 0 00-2.18033-3.5404l-26.58652-14.26207a1.32152 1.32152 0 00-1.6513.3863l-9.89073 7.362a1.32155 1.32155 0 01-1.73647.33937L408.5422 457.492a1.32154 1.32154 0 00-2.00147 1.1332V471.198a1.32154 1.32154 0 001.32154 1.32154h47.8962A1.32154 1.32154 0 00457.08 471.198zM375.08 471.198v-.09578a3.9646 3.9646 0 00-2.18033-3.5404l-26.58652-14.26207a1.32152 1.32152 0 00-1.6513.3863l-9.89073 7.362a1.32155 1.32155 0 01-1.73647.33937L326.5422 457.492a1.32154 1.32154 0 00-2.00147 1.1332V471.198a1.32154 1.32154 0 001.32154 1.32154h47.8962A1.32154 1.32154 0 00375.08 471.198z"></path><path fill="#f9977a" d="M408.71559,263.80924l-2.53769-2.04319a1.33642,1.33642,0,0,0-2.292.87563,16.1219,16.1219,0,0,0,.69966,5.31255l1.09092,4.01885Z"></path><path fill="#4f66d0" d="M397.5234,272.18226a2.72459,2.72459,0,0,1,3.45909-1.07712l1.97774.84425a2.02839,2.02839,0,0,0,2.64016-1.04479l6.27249-14.28673a2.58286,2.58286,0,0,0-.54454-2.08436,1.21582,1.21582,0,0,0-2.15355.21594h0a1.21348,1.21348,0,0,1-1.57959.68324l-.41009-.1638a1.21349,1.21349,0,0,1-.69288-1.53447l1.4497-4.06577.00324.00225a1.92124,1.92124,0,0,1,1.35445-1.4489,4.28118,4.28118,0,0,1,3.03865.06132l4.32879,1.66306a3.04617,3.04617,0,0,1,1.69715,4.06862l-9.88347,22.51126a3.18591,3.18591,0,0,1-4.149,1.65772l-5.53091-2.31842A2.61774,2.61774,0,0,1,397.5234,272.18226Z"></path><path fill="#f9977a" d="M419.79747,280.32119s2.15472-11.67945-.65876-19.87532a3.57186,3.57186,0,0,0-1.98406-2.14333l-2.67693-1.12726a3.53092,3.53092,0,0,0-4.50961,1.63788h0a3.52248,3.52248,0,0,0-.37407,1.96784c.272,2.70108.94292,9.79439.5399,10.30168A12.84085,12.84085,0,0,0,408.499,276.485a7.23608,7.23608,0,0,0,1.44812,4.46916Z"></path><path fill="#c0d6f2" d="M312.83266,441.51787H272.47178v-104.08h20.3406c11.0569,0,20.02028,6.84865,20.02028,15.29688v88.78308Z"></path><path fill="#8b9d36" d="M154.77492,444.477c-.98535-1.6416-24.18652-40.30664-27.93945-50.31445l.93555-.35156c3.72168,9.92285,27.62011,49.75,27.86132,50.15039Z"></path><path fill="#8b9d36" d="M135.40338 372.92681a42.96068 42.96068 0 00-2.31006 7.74274 72.38517 72.38517 0 00-1.18066 7.85022 70.94146 70.94146 0 00-.32519 7.93152 42.3789 42.3789 0 00.81542 8.04 42.417 42.417 0 002.31543-7.74231 71.05758 71.05758 0 001.1753-7.85071 72.38374 72.38374 0 00.31982-7.932A42.92136 42.92136 0 00135.40338 372.92681zM144.2237 384.98681a40.97632 40.97632 0 00-2.99756 7.30029 68.81732 68.81732 0 00-1.8833 7.51429 67.76828 67.76828 0 00-1.03955 7.67633 40.52854 40.52854 0 00.08593 7.89239 40.49106 40.49106 0 003.00293-7.29925 67.768 67.768 0 001.87793-7.51539 68.93027 68.93027 0 001.03418-7.6773A41.01562 41.01562 0 00144.2237 384.98681zM149.08356 399.02679a34.76935 34.76935 0 00-2.55176 6.78558 57.76106 57.76106 0 00-1.42773 6.946 56.79106 56.79106 0 00-.57764 7.06732 34.32983 34.32983 0 00.55664 7.22925 34.33186 34.33186 0 002.55713-6.78486 56.6989 56.6989 0 001.42236-6.94671 57.76044 57.76044 0 00.57227-7.06812A34.7356 34.7356 0 00149.08356 399.02679zM155.20368 413.04083a26.61748 26.61748 0 00-2.58741 5.77459 43.3764 43.3764 0 00-1.46875 5.96772 42.57314 42.57314 0 00-.62255 6.11383 26.3085 26.3085 0 00.50634 6.30877 26.2883 26.2883 0 002.59278-5.77368 42.64425 42.64425 0 001.46386-5.96863 43.44539 43.44539 0 00.61719-6.11474A26.617 26.617 0 00155.20368 413.04083zM160.60358 421.8001a23.96386 23.96386 0 00-2.73145 5.07032 41.31968 41.31968 0 00-1.71728 5.25976 47.214 47.214 0 00-1.03711 5.39392c-.11231.91553-.21533 1.82593-.28369 2.75391a20.49412 20.49412 0 01-.30176 2.81982 5.5337 5.5337 0 00.66406-.41919l.53906-.54016a9.96776 9.96776 0 00.94288-1.17932 18.88832 18.88832 0 001.4497-2.52307 28.09614 28.09614 0 001.90235-5.32019 31.49207 31.49207 0 00.8955-5.53955A20.854 20.854 0 00160.60358 421.8001zM130.15875 400.17846a34.44915 34.44915 0 00-6.084-5.2757 56.379 56.379 0 00-6.72461-4.00994 55.38957 55.38957 0 00-7.21-3.05194 34.055 34.055 0 00-7.85645-1.77411 34.04506 34.04506 0 006.08057 5.28173 55.3942 55.3942 0 006.728 4.00391 56.35692 56.35692 0 007.21289 3.0459A34.44583 34.44583 0 00130.15875 400.17846zM136.13483 411.34069a42.4367 42.4367 0 00-7.50391-4.91229 70.6533 70.6533 0 00-8.00293-3.58417 69.39039 69.39039 0 00-8.38037-2.5791 41.95341 41.95341 0 00-8.88379-1.23834 41.96215 41.96215 0 007.501 4.91864 69.40235 69.40235 0 008.00537 3.57782A70.63882 70.63882 0 00127.253 410.096 42.43635 42.43635 0 00136.13483 411.34069zM143.1695 423.74792a36.18955 36.18955 0 00-6.76416-4.74268 59.4724 59.4724 0 00-7.28028-3.421 58.41561 58.41561 0 00-7.67041-2.42077 35.76993 35.76993 0 00-8.19092-1.08649 35.78322 35.78322 0 006.76172 4.749 58.42826 58.42826 0 007.28272 3.41474 59.48022 59.48022 0 007.67285 2.41449A36.18814 36.18814 0 00143.1695 423.74792zM148.72907 433.29778a27.13046 27.13046 0 00-5.94092-3.91314 43.32825 43.32825 0 00-6.36475-2.55915 42.55172 42.55172 0 00-6.686-1.53454 26.84217 26.84217 0 00-7.11377-.16767 26.84032 26.84032 0 005.939 3.91956 42.54727 42.54727 0 006.36719 2.55273 43.30677 43.30677 0 006.6875 1.528A27.144 27.144 0 00148.72907 433.29778z"></path><path fill="#8b9d36" d="M153.11774 441.86675a35.68408 35.68408 0 00-6.53027-4.96179 58.56481 58.56481 0 00-7.09375-3.65979 57.54525 57.54525 0 00-7.52051-2.67456 35.28284 35.28284 0 00-8.08936-1.36011 35.26918 35.26918 0 006.52735 4.968 57.52185 57.52185 0 007.09668 3.65369 58.55345 58.55345 0 007.52294 2.66821A35.68275 35.68275 0 00153.11774 441.86675zM128.21686 395.42681a25.11579 25.11579 0 00-.19482-8.01983 37.78973 37.78973 0 00-2.04346-7.2959 37.16891 37.16891 0 00-3.44385-6.74756 24.86483 24.86483 0 00-5.311-6.01672 24.85 24.85 0 00.18554 8.02325 37.20273 37.20273 0 002.05225 7.29248 37.79329 37.79329 0 003.45312 6.74408A25.12 25.12 0 00128.21686 395.42681z"></path><path fill="#50661a" d="M158.4468,446.11078c-.01075-.666-1.22559-66.874-13.96289-87.041l.8457-.53321c12.88672,20.40332,14.07324,84.82617,14.11719,87.5586Z"></path><path fill="#50661a" d="M149.04743 367.73849a45.82656 45.82656 0 01-.29981-9.01806 81.07505 81.07505 0 01.97461-8.748c.4668-2.88483 1.102-5.741 1.84912-8.57336.7461-2.85108 1.68848-5.59418 2.69531-8.516a12.49494 12.49494 0 01.645 2.24207 19.97845 19.97845 0 01.35254 2.27826 38.609 38.609 0 01.20313 4.52258 58.06855 58.06855 0 01-.814 8.86359 64.41682 64.41682 0 01-2.05078 8.63025A40.57818 40.57818 0 01149.04743 367.73849zM133.20709 326.94308a32.40161 32.40161 0 015.64112 7.248 50.93841 50.93841 0 013.78076 7.94427 50.056 50.056 0 012.373 8.47126 32.05245 32.05245 0 01.49511 9.17407 32.052 32.052 0 01-5.6499-7.24475 50.00938 50.00938 0 01-3.772-7.94763 50.93782 50.93782 0 01-2.36426-8.47455A32.38535 32.38535 0 01133.20709 326.94308zM122.587 343.3619a74.64241 74.64241 0 017.42871 6.845c2.2959 2.38 4.48681 4.81323 6.63037 7.25964l6.36865 7.30878c1.06836 1.19683 2.14795 2.37616 3.28858 3.49322a15.016 15.016 0 003.88623 2.93573 6.74562 6.74562 0 01-2.65967-.06744 12.45175 12.45175 0 01-2.5625-.806 24.74811 24.74811 0 01-4.564-2.61688 44.79374 44.79374 0 01-7.51806-6.95514 59.34832 59.34832 0 01-5.97412-8.16138A42.475 42.475 0 01122.587 343.3619zM122.587 359.78073a61.48143 61.48143 0 019.23486 5.67981 104.619 104.619 0 018.28564 6.73413 102.85475 102.85475 0 017.56739 7.532 60.78776 60.78776 0 016.60888 8.59638 60.766 60.766 0 01-9.23974-5.67481 102.77269 102.77269 0 01-8.28125-6.73913 104.61446 104.61446 0 01-7.5625-7.53705A61.4734 61.4734 0 01122.587 359.78073zM123.66705 372.66305a60.7939 60.7939 0 019.33008 5.39563 103.3948 103.3948 0 018.40918 6.47431 101.61556 101.61556 0 017.71143 7.29058 60.11113 60.11113 0 016.78076 8.37946 60.08177 60.08177 0 01-9.335-5.39044 101.55017 101.55017 0 01-8.4043-6.47943 103.39228 103.39228 0 01-7.707-7.29572A60.76419 60.76419 0 01123.66705 372.66305zM124.38678 386.43307a56.52067 56.52067 0 019.3457 4.53375 95.71363 95.71363 0 018.49707 5.67048 94.11963 94.11963 0 017.8545 6.53088 55.85151 55.85151 0 016.99756 7.67853 55.90242 55.90242 0 01-9.34961-4.52832 94.117 94.117 0 01-8.49317-5.676 95.78274 95.78274 0 01-7.8501-6.53631A56.52015 56.52015 0 01124.38678 386.43307zM123.66705 396.42306a62.88282 62.88282 0 019.77833 4.96485 107.1145 107.1145 0 018.92041 6.09478 105.23247 105.23247 0 018.27148 6.95 62.14324 62.14324 0 017.40478 8.09063 62.149 62.149 0 01-9.78222-4.95941 105.23206 105.23206 0 01-8.91651-6.10022 107.09839 107.09839 0 01-8.26709-6.95538A62.87981 62.87981 0 01123.66705 396.42306zM121.147 405.78305a81.97424 81.97424 0 0110.22119 5.67273c3.24511 2.07739 6.38476 4.2735 9.4458 6.56561 3.06982 2.27875 6.05469 4.65448 8.98681 7.10931 2.96241 2.43378 5.76075 4.96863 8.82569 7.479a24.7131 24.7131 0 01-5.72315-1.67017 55.96635 55.96635 0 01-5.31445-2.55853 87.2271 87.2271 0 01-9.7666-6.35547 100.70452 100.70452 0 01-8.87256-7.4873A63.785 63.785 0 01121.147 405.78305zM118.087 415.50308a84.30679 84.30679 0 0111.09912 5.27447c3.54443 1.97455 6.98437 4.09467 10.34521 6.32636q5.042 3.34653 9.84082 7.03778 2.39868 1.85084 4.75147 3.76819a42.34093 42.34093 0 004.82324 3.69324 9.31674 9.31674 0 01-3.11816-.53553c-1.00489-.2976-1.98047-.65966-2.94532-1.03625-1.92431-.76392-3.78369-1.6377-5.60742-2.5636a106.41612 106.41612 0 01-10.51318-6.202 120.18184 120.18184 0 01-9.78565-7.25213A74.38118 74.38118 0 01118.087 415.50308zM152.15 379.17392a49.74961 49.74961 0 011.43457-9.62586 83.59449 83.59449 0 012.7666-9.13855 82.28109 82.28109 0 013.77539-8.76977 49.21475 49.21475 0 015.12011-8.27784 49.21933 49.21933 0 01-1.42773 9.62818 82.28244 82.28244 0 01-2.77344 9.13623 83.71015 83.71015 0 01-3.78174 8.76746A49.7509 49.7509 0 01152.15 379.17392zM154.28375 390.41372a50.83653 50.83653 0 012.7627-9.44586 85.60493 85.60493 0 014.01758-8.78448 84.18059 84.18059 0 014.96777-8.284 50.29455 50.29455 0 016.23486-7.61633 50.295 50.295 0 01-2.75634 9.449 84.28258 84.28258 0 01-4.02393 8.78131 85.7099 85.7099 0 01-4.97363 8.28083A50.9006 50.9006 0 01154.28375 390.41372zM155.8985 401.28305a55.683 55.683 0 014.04395-9.483 94.3595 94.3595 0 015.21923-8.68866 92.71017 92.71017 0 016.10938-8.08741 55.06085 55.06085 0 017.2959-7.28552 55.0548 55.0548 0 01-4.03858 9.48682 92.59568 92.59568 0 01-5.22509 8.68481 94.26069 94.26069 0 01-6.11475 8.08368A55.68706 55.68706 0 01155.8985 401.28305zM157.08161 413.27481a71.80141 71.80141 0 015.78955-10.1778q3.22777-4.817 6.88818-9.27984 3.64819-4.47282 7.71924-8.60028a70.68871 70.68871 0 018.82812-7.69385 70.68165 70.68165 0 01-5.78418 10.18207q-3.22778 4.81677-6.89306 9.27557-3.657 4.46631-7.72461 8.596A71.71655 71.71655 0 01157.08161 413.27481zM158.04205 425.70974a72.51315 72.51315 0 016.856-9.56689q3.731-4.47876 7.856-8.56006 4.11328-4.09268 8.61182-7.79809a71.415 71.415 0 019.62109-6.78162 71.4171 71.4171 0 01-6.85108 9.57165q-3.73095 4.47831-7.86035 8.5553-4.12134 4.08527-8.6167 7.79328A72.48377 72.48377 0 01158.04205 425.70974zM158.62653 433.68307a63.19351 63.19351 0 017.44873-8.08764 107.66539 107.66539 0 018.3042-6.95594 105.76151 105.76151 0 018.95166-6.09948 62.46848 62.46848 0 019.81592-4.957 62.48675 62.48675 0 01-7.44483 8.093 105.84369 105.84369 0 01-8.3081 6.95056 107.74392 107.74392 0 01-8.95606 6.09406A63.20684 63.20684 0 01158.62653 433.68307zM158.94684 440.34311a66.89649 66.89649 0 018.70215-7.23548q4.56445-3.24482 9.40674-6.0039 4.83471-2.77267 9.93994-5.072A66.111 66.111 0 01197.647 418.203a66.12127 66.12127 0 01-8.69922 7.24127q-4.56445 3.24446-9.40967 5.998-4.83984 2.7638-9.94336 5.06616A66.9074 66.9074 0 01158.94684 440.34311zM158.6983 444.66305a72.24894 72.24894 0 0110.18116-5.86426c3.49316-1.6864 7.05468-3.189 10.67431-4.534q5.42871-2.01948 11.04737-3.52735a71.19525 71.19525 0 0111.5459-2.18432 71.19544 71.19544 0 01-10.17872 5.8706q-5.24048 2.52906-10.67675 4.52771c-3.62159 1.33985-7.30176 2.52234-11.04981 3.521A72.23646 72.23646 0 01158.6983 444.66305z"></path><path fill="#5e7c24" d="M160.49855,444.477l-.85742-.51562c.24121-.40039,24.13965-40.22754,27.86035-50.15039l.93555.35156C184.68508,404.17035,161.48391,442.83539,160.49855,444.477Z"></path><path fill="#5e7c24" d="M179.86981 372.92681a42.95983 42.95983 0 012.31 7.74274 72.38275 72.38275 0 011.18067 7.85022 70.94146 70.94146 0 01.32519 7.93152 42.37974 42.37974 0 01-.81543 8.04 42.41853 42.41853 0 01-2.31543-7.74231 71.05992 71.05992 0 01-1.17529-7.85071 72.38374 72.38374 0 01-.31982-7.932A42.92136 42.92136 0 01179.86981 372.92681zM171.04949 384.98681a40.97707 40.97707 0 012.99756 7.30029 68.81732 68.81732 0 011.8833 7.51429 67.76828 67.76828 0 011.03955 7.67633 40.52854 40.52854 0 01-.08593 7.89239 40.49106 40.49106 0 01-3.00293-7.29925 67.768 67.768 0 01-1.87793-7.51539 68.93027 68.93027 0 01-1.03418-7.6773A41.01562 41.01562 0 01171.04949 384.98681zM166.18963 399.02679a34.76935 34.76935 0 012.55176 6.78558 57.76106 57.76106 0 011.42773 6.946 56.79106 56.79106 0 01.57764 7.06732 34.32983 34.32983 0 01-.55664 7.22925 34.33186 34.33186 0 01-2.55713-6.78486 56.69515 56.69515 0 01-1.42236-6.94671 57.76044 57.76044 0 01-.57227-7.06812A34.7356 34.7356 0 01166.18963 399.02679zM160.06951 413.04083a26.61748 26.61748 0 012.58741 5.77459 43.37784 43.37784 0 011.46875 5.96772 42.57314 42.57314 0 01.62255 6.11383 26.3085 26.3085 0 01-.50634 6.30877 26.2883 26.2883 0 01-2.59278-5.77368 42.64286 42.64286 0 01-1.46386-5.96863 43.44539 43.44539 0 01-.61719-6.11474A26.617 26.617 0 01160.06951 413.04083zM154.66961 421.8001a23.96431 23.96431 0 012.73145 5.07032 41.31968 41.31968 0 011.71728 5.25976 47.214 47.214 0 011.03711 5.39392c.11231.91553.21533 1.82593.28369 2.75391a20.49412 20.49412 0 00.30176 2.81982 5.5337 5.5337 0 01-.66406-.41919l-.53907-.54016a9.96868 9.96868 0 01-.94287-1.17932 18.88832 18.88832 0 01-1.4497-2.52307 28.09614 28.09614 0 01-1.90235-5.32019 31.493 31.493 0 01-.89551-5.53955A20.85437 20.85437 0 01154.66961 421.8001zM185.11443 400.17846a34.44956 34.44956 0 016.084-5.2757 56.379 56.379 0 016.72461-4.00994 55.38957 55.38957 0 017.21-3.05194 34.055 34.055 0 017.85644-1.77411 34.04535 34.04535 0 01-6.08056 5.28173 55.3942 55.3942 0 01-6.728 4.00391 56.35692 56.35692 0 01-7.21289 3.0459A34.4458 34.4458 0 01185.11443 400.17846zM179.13836 411.34069a42.4367 42.4367 0 017.50391-4.91229 70.6533 70.6533 0 018.00293-3.58417 69.38983 69.38983 0 018.38037-2.5791 41.95341 41.95341 0 018.88379-1.23834 41.9625 41.9625 0 01-7.501 4.91864 69.40235 69.40235 0 01-8.00537 3.57782 70.63882 70.63882 0 01-8.38281 2.57275A42.43635 42.43635 0 01179.13836 411.34069zM172.10369 423.74792a36.18955 36.18955 0 016.76416-4.74268 59.4724 59.4724 0 017.28028-3.421 58.41561 58.41561 0 017.67041-2.42077 35.76992 35.76992 0 018.19091-1.08649 35.78284 35.78284 0 01-6.76171 4.749 58.42826 58.42826 0 01-7.28272 3.41474 59.48022 59.48022 0 01-7.67285 2.41449A36.18821 36.18821 0 01172.10369 423.74792zM166.54412 433.29778a27.13023 27.13023 0 015.94092-3.91314 43.32825 43.32825 0 016.36475-2.55915 42.55172 42.55172 0 016.686-1.53454 26.84216 26.84216 0 017.11377-.16767 26.84032 26.84032 0 01-5.939 3.91956 42.54727 42.54727 0 01-6.36719 2.55273 43.30677 43.30677 0 01-6.6875 1.528A27.144 27.144 0 01166.54412 433.29778z"></path><path fill="#5e7c24" d="M162.15545 441.86675a35.68408 35.68408 0 016.53027-4.96179 58.56481 58.56481 0 017.09375-3.65979A57.54473 57.54473 0 01183.3 430.57061a35.28284 35.28284 0 018.08936-1.36011 35.26951 35.26951 0 01-6.52735 4.968 57.52185 57.52185 0 01-7.09668 3.65369 58.553 58.553 0 01-7.523 2.66821A35.68257 35.68257 0 01162.15545 441.86675zM187.05633 395.42681a25.11579 25.11579 0 01.19482-8.01983 37.78973 37.78973 0 012.04346-7.2959 37.16891 37.16891 0 013.44385-6.74756 24.86483 24.86483 0 015.311-6.01672 24.85 24.85 0 01-.18554 8.02325 37.20273 37.20273 0 01-2.05225 7.29248 37.79329 37.79329 0 01-3.45312 6.74408A25.12 25.12 0 01187.05633 395.42681z"></path><path fill="#935b50" d="M166.11728,472.65586h-18.0714l-5.81376-30.8438a1.22593,1.22593,0,0,1,1.19629-1.45892h27.30633a1.22593,1.22593,0,0,1,1.19629,1.45892Z"></path><path fill="#d6694b" d="M171.511,444.04068l.42009-2.2286a1.22592,1.22592,0,0,0-1.19629-1.45892H143.4284a1.22593,1.22593,0,0,0-1.19629,1.45892l.42009,2.2286Z"></path><polygon fill="#d6694b" points="149.49 463.921 145.673 460.067 149.49 456.214 153.308 460.067 149.49 463.921"></polygon><polygon fill="#d6694b" points="157.125 463.921 153.308 460.067 157.125 456.214 160.943 460.067 157.125 463.921"></polygon><polygon fill="#d6694b" points="164.672 463.921 160.855 460.067 164.672 456.214 168.49 460.067 164.672 463.921"></polygon><path fill="#4f66d0" d="M437.79032,337.281h41.37479a3.56972,3.56972,0,0,0,3.01719-5.47745L472.41758,316.36a3.56971,3.56971,0,0,0-3.0172-1.662H447.555a3.56972,3.56972,0,0,0-3.0172,1.662l-9.76472,15.44354A3.56972,3.56972,0,0,0,437.79032,337.281Z"></path><circle cx="458.478" cy="325.99" r="6.109" fill="#8795de"></circle><path fill="#8795de" d="M458.45949,334.07367h-.001a8.09223,8.09223,0,0,1-2.49415-.39746.50029.50029,0,0,1,.31055-.95117,7.09251,7.09251,0,0,0,2.18555.34863.5.5,0,0,1-.001,1Zm2.34278-.36328a.49988.49988,0,0,1-.15332-.97559,7.08551,7.08551,0,0,0,1.9746-1,.50008.50008,0,1,1,.58594.81055,8.07415,8.07415,0,0,1-2.2539,1.14063A.49313.49313,0,0,1,460.80227,333.71039Zm-6.792-1.09082a.49563.49563,0,0,1-.29492-.09668,8.11587,8.11587,0,0,1-1.78223-1.78613.49986.49986,0,0,1,.8086-.58789,7.101,7.101,0,0,0,1.56348,1.5664.50047.50047,0,0,1-.29493.9043Zm10.58789-1.64941a.49951.49951,0,0,1-.40332-.79493,7.06158,7.06158,0,0,0,1.01368-1.96777.49966.49966,0,1,1,.94921.3125,8.0629,8.0629,0,0,1-1.15625,2.24609A.501.501,0,0,1,464.59816,330.97016Zm-13.33691-2.13965a.49926.49926,0,0,1-.47559-.34571,8.05587,8.05587,0,0,1-.39257-2.49511.53264.53264,0,0,1,.501-.53614.47.47,0,0,1,.5.4629l-.001.09277a7.02045,7.02045,0,0,0,.34375,2.167.5.5,0,0,1-.47559.6543Zm14.80078-2.32324a.48478.48478,0,0,1-.499-.48243h.5l-.5-.00781a7.12969,7.12969,0,0,0-.335-2.18164.50032.50032,0,1,1,.95312-.30469,8.0611,8.0611,0,0,1,.38086,2.459A.515.515,0,0,1,466.062,326.50727Zm-14.77832-2.42774a.49191.49191,0,0,1-.1582-.02539.50056.50056,0,0,1-.31641-.63281,8.02994,8.02994,0,0,1,1.16895-2.24121.49981.49981,0,1,1,.80273.5957,7.03873,7.03873,0,0,0-1.02246,1.96191A.5006.5006,0,0,1,451.28371,324.07953Zm13.35547-2.01367a.49955.49955,0,0,1-.40625-.208,7.08478,7.08478,0,0,0-1.55566-1.57519.5.5,0,1,1,.59375-.80469,8.1248,8.1248,0,0,1,1.77441,1.7959.49991.49991,0,0,1-.40625.792Zm-10.57031-1.749a.5.5,0,0,1-.291-.90625,8.00055,8.00055,0,0,1,2.25977-1.13086.49973.49973,0,0,1,.30078.95312,7.05318,7.05318,0,0,0-1.97852.99024A.4943.4943,0,0,1,454.06887,320.31684Zm6.80078-1.02735a.49036.49036,0,0,1-.15723-.02539,7.06236,7.06236,0,0,0-2.18457-.35937.5.5,0,0,1,.00391-1h.0039a8.08093,8.08093,0,0,1,2.49121.41015.5.5,0,0,1-.15722.97461Z"></path><path fill="#4f66d0" d="M458.47805,315.6977a.99942.99942,0,0,1-1-1v-4.68165a1,1,0,0,1,2,0v4.68165A.99943.99943,0,0,1,458.47805,315.6977Z"></path><path fill="#4f66d0" d="M466.72414 311.01605H450.232a1 1 0 010-2h16.49219a1 1 0 010 2zM413.19094 335.186c-.19532 0-.39356-.00489-.5918-.01368a.5954.5954 0 11.05664-1.18945c.19531.00977.38672.0127.58594.01367a11.85555 11.85555 0 001.6748-.11621.59483.59483 0 01.168 1.17774A15.14668 15.14668 0 01413.19094 335.186zm-2.9209-.31348a.61608.61608 0 01-.11914-.01172 19.46448 19.46448 0 01-2.36817-.64648.5951.5951 0 11.38282-1.127 18.274 18.274 0 002.22168.60743.59478.59478 0 01-.11719 1.17773zm7.0332-.3877a.595.595 0 01-.20605-1.15332 10.05923 10.05923 0 002.001-1.001.59539.59539 0 11.64649 1 11.35982 11.35982 0 01-2.23535 1.11816A.61089.61089 0 01417.30324 334.4848zm-11.53711-1.127a.59116.59116 0 01-.249-.05469c-.71387-.3291-1.44141-.7041-2.16113-1.11621a.59486.59486 0 11.58984-1.0332c.69043.39453 1.38672.75391 2.06934 1.06934a.59471.59471 0 01-.249 1.13476zm15.50782-1.416a.59475.59475 0 01-.41407-1.02247 16.48344 16.48344 0 001.52442-1.71386.59484.59484 0 01.9375.73242 17.66061 17.66061 0 01-1.63379 1.83691A.59426.59426 0 01421.274 331.94184zm-19.64161-.93653a.5933.5933 0 01-.333-.10254c-.65918-.44726-1.31739-.92871-1.95508-1.43261a.59451.59451 0 11.73633-.9336c.61621.48535 1.251.9502 1.88671 1.38184a.59474.59474 0 01-.335 1.08691zm22.59961-2.77539a.58579.58579 0 01-.32715-.09863.59421.59421 0 01-.168-.82422c.40918-.61914.80664-1.252 1.20507-1.88574l.06836-.10938a.595.595 0 011.00782.63282l-.06836.10937c-.40332.64258-.80567 1.2832-1.22071 1.90918A.59445.59445 0 01424.232 328.22992zm-26.33691-.168a.59049.59049 0 01-.39942-.15429c-.61328-.55567-1.19726-1.126-1.73632-1.69434a.59476.59476 0 11.86328-.81836c.51855.54688 1.081 1.0957 1.67187 1.63184a.59471.59471 0 01-.39941 1.03515zm-3.2666-3.459a.59417.59417 0 01-.46582-.22461c-.50391-.63477-.98145-1.29981-1.42188-1.97656a.5951.5951 0 11.998-.64844c.41894.64551.876 1.28027 1.35547 1.88476a.59469.59469 0 01-.46582.96485zm32.16894-.38574a.5946.5946 0 01-.49414-.92481c.50391-.75586.9668-1.40137 1.416-1.97168a.59528.59528 0 11.93554.73633c-.42968.5459-.875 1.166-1.36132 1.89551A.59452.59452 0 01426.79738 324.21723zm-34.75781-3.59864a.5946.5946 0 01-.52832-.31836c-.37207-.71-.71777-1.45214-1.02832-2.20507a.59466.59466 0 111.09961-.45313c.29687.71875.62793 1.42774.9834 2.10547a.59425.59425 0 01-.52637.87109zm37.73535-.10254a.59472.59472 0 01-.41211-1.02343 12.9964 12.9964 0 011.93848-1.55176.59481.59481 0 11.65039.99609A11.98467 11.98467 0 00430.187 320.35.59033.59033 0 01429.77492 320.51605zm15.52246-1.71a.59865.59865 0 01-.24023-.0498 21.32408 21.32408 0 00-2.16309-.82227.59515.59515 0 01.35938-1.13476 22.92 22.92 0 012.28418.86719.595.595 0 01-.24024 1.13964zm-11.55859-.85058a.59472.59472 0 01-.21192-1.15039 12.26334 12.26334 0 011.28223-.41016c.375-.09863.748-.17773 1.11914-.24219a.59468.59468 0 01.20313 1.17188c-.33789.05859-.67969.13183-1.02149.2207a11.295 11.295 0 00-1.15918.3711A.59776.59776 0 01433.73879 317.95551zm7.0293-.56739a.61725.61725 0 01-.10352-.00878 14.54139 14.54139 0 00-2.27344-.22168.59477.59477 0 01.00977-1.18946h.00976a15.73637 15.73637 0 012.459.23926.59478.59478 0 01-.10156 1.18066zm-50.543-1.16015a.595.595 0 01-.56739-.416c-.23925-.76074-.45117-1.55078-.62988-2.34765a.59444.59444 0 011.16016-.25977c.17187.76367.375 1.52149.60449 2.25a.59474.59474 0 01-.38867.74609A.602.602 0 01390.22512 316.228zm-1.04785-4.63867a.595.595 0 01-.5879-.50879c-.11425-.78614-.20312-1.59668-.26269-2.40821a.59537.59537 0 011.1875-.08789c.05664.78418.14258 1.56641.25293 2.32422a.59579.59579 0 01-.50293.67481A.66184.66184 0 01389.17727 311.5893zm-.35157-4.74414a.59392.59392 0 01-.59472-.58887l-.001-.28027c0-.73731.02051-1.45118.05762-2.13575a.59462.59462 0 011.1875.06446c-.03516.66308-.05567 1.35547-.05567 2.07129l.001.26855a.59393.59393 0 01-.58887.60059zm.25391-4.751c-.02246 0-.04395-.001-.06641-.00293a.59639.59639 0 01-.52636-.65723c.09765-.87988.21289-1.68261.33007-2.38867a.59482.59482 0 011.17383.19336c-.11328.68848-.22656 1.46973-.32031 2.32617A.59542.59542 0 01389.07961 302.09418zm.76465-4.69824a.62368.62368 0 01-.11914-.01172.59447.59447 0 01-.46485-.70117c.15723-.77735.34473-1.56934.55762-2.35254a.5951.5951 0 111.14844.3125c-.20606.75781-.3877 1.52344-.54 2.27636A.59375.59375 0 01389.84426 297.39594zm1.24219-4.58887a.57666.57666 0 01-.19239-.03223.59415.59415 0 01-.37011-.75488c.26074-.76465.54785-1.52539.85156-2.26172a.595.595 0 011.09961.45508c-.29492.71289-.57227 1.4502-.82617 2.19141A.59432.59432 0 01391.08645 292.80707zm1.8164-4.39746a.59424.59424 0 01-.53515-.85547c.34863-.71387.72656-1.43359 1.125-2.13769a.59474.59474 0 011.03515.58593c-.38574.68262-.75293 1.38086-1.08984 2.07324A.59658.59658 0 01392.90285 288.40961zm2.33985-4.14063a.58862.58862 0 01-.32129-.09472.59517.59517 0 01-.17774-.82227c.43164-.66992.89258-1.33887 1.37012-1.98926a.59457.59457 0 11.959.70313c-.46289.63184-.91015 1.28125-1.3291 1.93066A.595.595 0 01395.2427 284.269zm2.81152-3.83886a.59467.59467 0 01-.459-.97364c.543-.65722 1.0752-1.26269 1.58692-1.81836a.595.595 0 01.875.80665c-.498.54-1.0166 1.12988-1.54395 1.76953A.59435.59435 0 01398.05422 280.43012zm3.22851-3.498a.59474.59474 0 01-.41406-1.02246c.58106-.5625 1.16406-1.0957 1.78125-1.62988a.5954.5954 0 11.7793.90039c-.60059.51953-1.168 1.03808-1.73242 1.585A.596.596 0 01401.28273 276.93207z"></path><rect width="500" height="2" x="100" y="472.277" fill="#935b50"></rect></svg>